<svg xmlns="http://www.w3.org/2000/svg" viewBox="0 0 1280 720" width="1280" height="720" role="img" aria-label="CPU结果：算力瓶颈需要并行计算方案">
  <defs>
    <linearGradient id="bg" x1="0" y1="0" x2="1" y2="1">
      <stop offset="0%" stop-color="#0B1020"/>
      <stop offset="55%" stop-color="#0A0A0A"/>
      <stop offset="100%" stop-color="#172033"/>
    </linearGradient>
    <linearGradient id="blue" x1="0" y1="0" x2="1" y2="1">
      <stop offset="0%" stop-color="#002FA7"/>
      <stop offset="100%" stop-color="#002FA7"/>
    </linearGradient>
    <style>
      .page { font-family: "Inter", "Helvetica Neue", "Helvetica", "Noto Sans SC", "Microsoft YaHei", "Microsoft YaHei UI", "DengXian", "SimSun", "NSimSun", Arial, sans-serif; }
      .card { fill: rgba(255,255,255,0.78); stroke: #D4D4D2; stroke-width: 1.15; }
      .card2 { fill: rgba(255,255,255,0.88); stroke: #0A0A0A; stroke-width: 1.15; }
      .chartcard { fill: #FFFFFF; stroke: #0A0A0A; stroke-width: 1.15; }
      .kicker { fill: #002FA7; font-size: 14.5px; font-weight: 700; letter-spacing: 1.9px; }
      .title { fill: #0A0A0A; font-size: 39px; font-weight: 560; letter-spacing: 0; }
      .h1 { fill: #0A0A0A; font-size: 52px; font-weight: 360; letter-spacing: 0; }
      .h2 { fill: #0A0A0A; font-size: 24px; font-weight: 560; letter-spacing: 0; }
      .h3 { fill: #0A0A0A; font-size: 19.5px; font-weight: 620; letter-spacing: 0; }
      .body { fill: #242424; font-size: 16.8px; font-weight: 470; letter-spacing: 0; }
      .body2 { fill: #0A0A0A; font-size: 19.2px; font-weight: 560; letter-spacing: 0; }
      .small { fill: #737373; font-size: 13.5px; font-weight: 520; letter-spacing: 0; }
      .metric { fill: #002FA7; font-size: 44px; font-weight: 520; letter-spacing: 0; }
      .axis { stroke: #D4D4D2; stroke-width: 1; }
      .node { fill: rgba(255,255,255,0.82); stroke: #D4D4D2; stroke-width: 1.1; }
      .line { fill: none; stroke-width: 3; stroke-linecap: square; stroke-linejoin: miter; }
    </style>
  </defs>
  <rect class="page" width="1280" height="720" fill="#FAFAF8"/ style="font-family: "Inter", "Helvetica Neue", "Helvetica", "Noto Sans SC", "Microsoft YaHei", "Microsoft YaHei UI", "DengXian", "SimSun", "NSimSun", Arial, sans-serif;">
  <g class="swiss-grid">
  <line x1="80" y1="0" x2="80" y2="720" stroke="#D4D4D2" stroke-width="0.65" opacity="0.35"/>
  <line x1="150" y1="0" x2="150" y2="720" stroke="#D4D4D2" stroke-width="0.65" opacity="0.35"/>
  <line x1="220" y1="0" x2="220" y2="720" stroke="#D4D4D2" stroke-width="0.65" opacity="0.35"/>
  <line x1="290" y1="0" x2="290" y2="720" stroke="#D4D4D2" stroke-width="0.65" opacity="0.35"/>
  <line x1="360" y1="0" x2="360" y2="720" stroke="#D4D4D2" stroke-width="0.65" opacity="0.35"/>
  <line x1="430" y1="0" x2="430" y2="720" stroke="#D4D4D2" stroke-width="0.65" opacity="0.35"/>
  <line x1="500" y1="0" x2="500" y2="720" stroke="#D4D4D2" stroke-width="0.65" opacity="0.35"/>
  <line x1="570" y1="0" x2="570" y2="720" stroke="#D4D4D2" stroke-width="0.65" opacity="0.35"/>
  <line x1="640" y1="0" x2="640" y2="720" stroke="#D4D4D2" stroke-width="0.65" opacity="0.35"/>
  <line x1="710" y1="0" x2="710" y2="720" stroke="#D4D4D2" stroke-width="0.65" opacity="0.35"/>
  <line x1="780" y1="0" x2="780" y2="720" stroke="#D4D4D2" stroke-width="0.65" opacity="0.35"/>
  <line x1="850" y1="0" x2="850" y2="720" stroke="#D4D4D2" stroke-width="0.65" opacity="0.35"/>
  <line x1="920" y1="0" x2="920" y2="720" stroke="#D4D4D2" stroke-width="0.65" opacity="0.35"/>
  <line x1="990" y1="0" x2="990" y2="720" stroke="#D4D4D2" stroke-width="0.65" opacity="0.35"/>
  <line x1="1060" y1="0" x2="1060" y2="720" stroke="#D4D4D2" stroke-width="0.65" opacity="0.35"/>
  <line x1="1130" y1="0" x2="1130" y2="720" stroke="#D4D4D2" stroke-width="0.65" opacity="0.35"/>
  <line x1="1200" y1="0" x2="1200" y2="720" stroke="#D4D4D2" stroke-width="0.65" opacity="0.35"/>
  <line x1="1270" y1="0" x2="1270" y2="720" stroke="#D4D4D2" stroke-width="0.65" opacity="0.35"/>
  <line x1="0" y1="80" x2="1280" y2="80" stroke="#D4D4D2" stroke-width="0.65" opacity="0.22"/>
  <line x1="0" y1="150" x2="1280" y2="150" stroke="#D4D4D2" stroke-width="0.65" opacity="0.22"/>
  <line x1="0" y1="220" x2="1280" y2="220" stroke="#D4D4D2" stroke-width="0.65" opacity="0.22"/>
  <line x1="0" y1="290" x2="1280" y2="290" stroke="#D4D4D2" stroke-width="0.65" opacity="0.22"/>
  <line x1="0" y1="360" x2="1280" y2="360" stroke="#D4D4D2" stroke-width="0.65" opacity="0.22"/>
  <line x1="0" y1="430" x2="1280" y2="430" stroke="#D4D4D2" stroke-width="0.65" opacity="0.22"/>
  <line x1="0" y1="500" x2="1280" y2="500" stroke="#D4D4D2" stroke-width="0.65" opacity="0.22"/>
  <line x1="0" y1="570" x2="1280" y2="570" stroke="#D4D4D2" stroke-width="0.65" opacity="0.22"/>
  <line x1="0" y1="640" x2="1280" y2="640" stroke="#D4D4D2" stroke-width="0.65" opacity="0.22"/>
  <line x1="0" y1="710" x2="1280" y2="710" stroke="#D4D4D2" stroke-width="0.65" opacity="0.22"/>

  </g>
  <g class="page" style="font-family: "Inter", "Helvetica Neue", "Helvetica", "Noto Sans SC", "Microsoft YaHei", "Microsoft YaHei UI", "DengXian", "SimSun", "NSimSun", Arial, sans-serif;">
    <text x="50" y="52" class="kicker" text-anchor="start" style="fill: #002FA7; font-size: 14.5px; font-weight: 700; letter-spacing: 1.9px;">CPU RESULT</text>
    <text x="50" y="96" class="title" text-anchor="start" style="fill: #0A0A0A; font-size: 39px; font-weight: 560; letter-spacing: 0;">CPU结果：算力瓶颈需要并行计算方案</text>
    <text x="50" y="128" class="body" text-anchor="start" style="fill: #242424; font-size: 16.8px; font-weight: 470; letter-spacing: 0;">CPU-bound 场景下，各模型归一化耗时接近；协程主要负责组织等待任务。</text>

    <rect x="48" y="166" width="900" height="392" rx="0" class="chartcard"/ style="fill: #FFFFFF; stroke: #0A0A0A; stroke-width: 1.15;">
    <text x="120" y="222" fill="#0A0A0A" font-size="21" font-weight="850">200 CPU tasks: coroutine does not create CPU parallelism</text>
<line x1="152" y1="458" x2="888" y2="458" stroke="#0A0A0A" stroke-width="1.2"/>
<line x1="152" y1="260" x2="152" y2="458" stroke="#0A0A0A" stroke-width="1.2"/>
<text x="90" y="416" transform="rotate(-90 90 416)" fill="#0A0A0A" font-size="14">Normalized duration (asyncio = 1.0)</text>
<line x1="152" y1="458.0" x2="888" y2="458.0" stroke="#0A0A0A" stroke-width="1"/>
<text x="140" y="463.0" text-anchor="end" fill="#0A0A0A" font-size="12">0.0</text>
<line x1="152" y1="422.0" x2="888" y2="422.0" stroke="#0A0A0A" stroke-width="1"/>
<text x="140" y="427.0" text-anchor="end" fill="#0A0A0A" font-size="12">0.2</text>
<line x1="152" y1="386.0" x2="888" y2="386.0" stroke="#0A0A0A" stroke-width="1"/>
<text x="140" y="391.0" text-anchor="end" fill="#0A0A0A" font-size="12">0.4</text>
<line x1="152" y1="350.0" x2="888" y2="350.0" stroke="#0A0A0A" stroke-width="1"/>
<text x="140" y="355.0" text-anchor="end" fill="#0A0A0A" font-size="12">0.6</text>
<line x1="152" y1="314.0" x2="888" y2="314.0" stroke="#0A0A0A" stroke-width="1"/>
<text x="140" y="319.0" text-anchor="end" fill="#0A0A0A" font-size="12">0.8</text>
<line x1="152" y1="278.0" x2="888" y2="278.0" stroke="#0A0A0A" stroke-width="1"/>
<text x="140" y="283.0" text-anchor="end" fill="#0A0A0A" font-size="12">1.0</text>
<rect x="186.0" y="278.0" width="116" height="180.0" rx="3" fill="#002FA7"/>
<text x="244.0" y="270.0" text-anchor="middle" fill="#0A0A0A" font-size="12">1.00×</text>
<text x="244.0" y="484" text-anchor="middle" fill="#0A0A0A" font-size="12">asyncio</text>
<rect x="370.0" y="285.4" width="116" height="172.6" rx="3" fill="#242424"/>
<text x="428.0" y="277.4" text-anchor="middle" fill="#0A0A0A" font-size="12">0.96×</text>
<text x="428.0" y="484" text-anchor="middle" fill="#0A0A0A" font-size="12">threads-50</text>
<rect x="554.0" y="285.3" width="116" height="172.7" rx="3" fill="#737373"/>
<text x="612.0" y="277.3" text-anchor="middle" fill="#0A0A0A" font-size="12">0.96×</text>
<text x="612.0" y="484" text-anchor="middle" fill="#0A0A0A" font-size="12">threads-100</text>
<rect x="738.0" y="285.1" width="116" height="172.9" rx="3" fill="#737373"/>
<text x="796.0" y="277.1" text-anchor="middle" fill="#0A0A0A" font-size="12">0.96×</text>
<text x="796.0" y="484" text-anchor="middle" fill="#0A0A0A" font-size="12">threads-200</text>
    <rect x="976" y="166" width="256" height="392" rx="0" class="card"/ style="fill: rgba(255,255,255,0.78); stroke: #D4D4D2; stroke-width: 1.15;"><rect x="976" y="166" width="6" height="392" rx="3" fill="#002FA7" opacity="0.95"/>
    <text x="1006" y="210" class="kicker" style="fill: #002FA7; font-size: 14.5px; font-weight: 700; letter-spacing: 1.9px;">TAKEAWAY</text>
    <text x="1006" y="252" class="h2" style="fill: #0A0A0A; font-size: 24px; font-weight: 560; letter-spacing: 0;">等待交给协程</text>
    <text x="1006" y="284" class="h2" style="fill: #0A0A0A; font-size: 24px; font-weight: 560; letter-spacing: 0;">计算交给并行</text>
    <circle cx="1006" cy="337" r="4.5" fill="#002FA7"/>
<text x="1024" y="342" class="body" text-anchor="start" style="fill: #242424; font-size: 16.8px; font-weight: 470; letter-spacing: 0;">移出事件循环</text>
<circle cx="1006" cy="371" r="4.5" fill="#002FA7"/>
<text x="1024" y="376" class="body" text-anchor="start" style="fill: #242424; font-size: 16.8px; font-weight: 470; letter-spacing: 0;">进程池/原生扩展</text>
<circle cx="1006" cy="405" r="4.5" fill="#002FA7"/>
<text x="1024" y="410" class="body" text-anchor="start" style="fill: #242424; font-size: 16.8px; font-weight: 470; letter-spacing: 0;">向量化/SIMD/GPU</text>
<circle cx="1006" cy="439" r="4.5" fill="#002FA7"/>
<text x="1024" y="444" class="body" text-anchor="start" style="fill: #242424; font-size: 16.8px; font-weight: 470; letter-spacing: 0;">别把协程当算力</text>

  </g>
  <text x="1232" y="692" text-anchor="end" class="small" style="fill: #737373; font-size: 13.5px; font-weight: 520; letter-spacing: 0;">17/20</text>
</svg>
