<svg xmlns="http://www.w3.org/2000/svg" viewBox="0 0 1280 720" width="1280" height="720" role="img" aria-label="I/O结果：线程池更快，但用线程换速度">
  <defs>
    <linearGradient id="bg" x1="0" y1="0" x2="1" y2="1">
      <stop offset="0%" stop-color="#0B1020"/>
      <stop offset="55%" stop-color="#0A0A0A"/>
      <stop offset="100%" stop-color="#172033"/>
    </linearGradient>
    <linearGradient id="blue" x1="0" y1="0" x2="1" y2="1">
      <stop offset="0%" stop-color="#002FA7"/>
      <stop offset="100%" stop-color="#002FA7"/>
    </linearGradient>
    <style>
      .page { font-family: "Inter", "Helvetica Neue", "Helvetica", "Noto Sans SC", "Microsoft YaHei", "Microsoft YaHei UI", "DengXian", "SimSun", "NSimSun", Arial, sans-serif; }
      .card { fill: rgba(255,255,255,0.78); stroke: #D4D4D2; stroke-width: 1.15; }
      .card2 { fill: rgba(255,255,255,0.88); stroke: #0A0A0A; stroke-width: 1.15; }
      .chartcard { fill: #FFFFFF; stroke: #0A0A0A; stroke-width: 1.15; }
      .kicker { fill: #002FA7; font-size: 14.5px; font-weight: 700; letter-spacing: 1.9px; }
      .title { fill: #0A0A0A; font-size: 39px; font-weight: 560; letter-spacing: 0; }
      .h1 { fill: #0A0A0A; font-size: 52px; font-weight: 360; letter-spacing: 0; }
      .h2 { fill: #0A0A0A; font-size: 24px; font-weight: 560; letter-spacing: 0; }
      .h3 { fill: #0A0A0A; font-size: 19.5px; font-weight: 620; letter-spacing: 0; }
      .body { fill: #242424; font-size: 16.8px; font-weight: 470; letter-spacing: 0; }
      .body2 { fill: #0A0A0A; font-size: 19.2px; font-weight: 560; letter-spacing: 0; }
      .small { fill: #737373; font-size: 13.5px; font-weight: 520; letter-spacing: 0; }
      .metric { fill: #002FA7; font-size: 44px; font-weight: 520; letter-spacing: 0; }
      .axis { stroke: #D4D4D2; stroke-width: 1; }
      .node { fill: rgba(255,255,255,0.82); stroke: #D4D4D2; stroke-width: 1.1; }
      .line { fill: none; stroke-width: 3; stroke-linecap: square; stroke-linejoin: miter; }
    </style>
  </defs>
  <rect class="page" width="1280" height="720" fill="#FAFAF8"/ style="font-family: "Inter", "Helvetica Neue", "Helvetica", "Noto Sans SC", "Microsoft YaHei", "Microsoft YaHei UI", "DengXian", "SimSun", "NSimSun", Arial, sans-serif;">
  <g class="swiss-grid">
  <line x1="80" y1="0" x2="80" y2="720" stroke="#D4D4D2" stroke-width="0.65" opacity="0.35"/>
  <line x1="150" y1="0" x2="150" y2="720" stroke="#D4D4D2" stroke-width="0.65" opacity="0.35"/>
  <line x1="220" y1="0" x2="220" y2="720" stroke="#D4D4D2" stroke-width="0.65" opacity="0.35"/>
  <line x1="290" y1="0" x2="290" y2="720" stroke="#D4D4D2" stroke-width="0.65" opacity="0.35"/>
  <line x1="360" y1="0" x2="360" y2="720" stroke="#D4D4D2" stroke-width="0.65" opacity="0.35"/>
  <line x1="430" y1="0" x2="430" y2="720" stroke="#D4D4D2" stroke-width="0.65" opacity="0.35"/>
  <line x1="500" y1="0" x2="500" y2="720" stroke="#D4D4D2" stroke-width="0.65" opacity="0.35"/>
  <line x1="570" y1="0" x2="570" y2="720" stroke="#D4D4D2" stroke-width="0.65" opacity="0.35"/>
  <line x1="640" y1="0" x2="640" y2="720" stroke="#D4D4D2" stroke-width="0.65" opacity="0.35"/>
  <line x1="710" y1="0" x2="710" y2="720" stroke="#D4D4D2" stroke-width="0.65" opacity="0.35"/>
  <line x1="780" y1="0" x2="780" y2="720" stroke="#D4D4D2" stroke-width="0.65" opacity="0.35"/>
  <line x1="850" y1="0" x2="850" y2="720" stroke="#D4D4D2" stroke-width="0.65" opacity="0.35"/>
  <line x1="920" y1="0" x2="920" y2="720" stroke="#D4D4D2" stroke-width="0.65" opacity="0.35"/>
  <line x1="990" y1="0" x2="990" y2="720" stroke="#D4D4D2" stroke-width="0.65" opacity="0.35"/>
  <line x1="1060" y1="0" x2="1060" y2="720" stroke="#D4D4D2" stroke-width="0.65" opacity="0.35"/>
  <line x1="1130" y1="0" x2="1130" y2="720" stroke="#D4D4D2" stroke-width="0.65" opacity="0.35"/>
  <line x1="1200" y1="0" x2="1200" y2="720" stroke="#D4D4D2" stroke-width="0.65" opacity="0.35"/>
  <line x1="1270" y1="0" x2="1270" y2="720" stroke="#D4D4D2" stroke-width="0.65" opacity="0.35"/>
  <line x1="0" y1="80" x2="1280" y2="80" stroke="#D4D4D2" stroke-width="0.65" opacity="0.22"/>
  <line x1="0" y1="150" x2="1280" y2="150" stroke="#D4D4D2" stroke-width="0.65" opacity="0.22"/>
  <line x1="0" y1="220" x2="1280" y2="220" stroke="#D4D4D2" stroke-width="0.65" opacity="0.22"/>
  <line x1="0" y1="290" x2="1280" y2="290" stroke="#D4D4D2" stroke-width="0.65" opacity="0.22"/>
  <line x1="0" y1="360" x2="1280" y2="360" stroke="#D4D4D2" stroke-width="0.65" opacity="0.22"/>
  <line x1="0" y1="430" x2="1280" y2="430" stroke="#D4D4D2" stroke-width="0.65" opacity="0.22"/>
  <line x1="0" y1="500" x2="1280" y2="500" stroke="#D4D4D2" stroke-width="0.65" opacity="0.22"/>
  <line x1="0" y1="570" x2="1280" y2="570" stroke="#D4D4D2" stroke-width="0.65" opacity="0.22"/>
  <line x1="0" y1="640" x2="1280" y2="640" stroke="#D4D4D2" stroke-width="0.65" opacity="0.22"/>
  <line x1="0" y1="710" x2="1280" y2="710" stroke="#D4D4D2" stroke-width="0.65" opacity="0.22"/>

  </g>
  <g class="page" style="font-family: "Inter", "Helvetica Neue", "Helvetica", "Noto Sans SC", "Microsoft YaHei", "Microsoft YaHei UI", "DengXian", "SimSun", "NSimSun", Arial, sans-serif;">
    <text x="50" y="52" class="kicker" text-anchor="start" style="fill: #002FA7; font-size: 14.5px; font-weight: 700; letter-spacing: 1.9px;">I/O RESULT</text>
    <text x="50" y="96" class="title" text-anchor="start" style="fill: #0A0A0A; font-size: 39px; font-weight: 560; letter-spacing: 0;">I/O结果：线程池更快，但用线程换速度</text>
    <text x="50" y="128" class="body" text-anchor="start" style="fill: #242424; font-size: 16.8px; font-weight: 470; letter-spacing: 0;">asyncio用0个业务新增线程稳定承载5000个TCP请求；threads-200更快，但新增约200个线程。</text>

    <rect x="48" y="166" width="900" height="392" rx="0" class="chartcard"/ style="fill: #FFFFFF; stroke: #0A0A0A; stroke-width: 1.15;">
    <text x="126" y="222" fill="#0A0A0A" font-size="21" font-weight="850">5000 TCP requests: thread pool buys speed with threads</text>
<line x1="162" y1="458" x2="888" y2="458" stroke="#0A0A0A" stroke-width="1.2"/>
<line x1="162" y1="260" x2="162" y2="458" stroke="#0A0A0A" stroke-width="1.2"/>
<text x="92" y="416" transform="rotate(-90 92 416)" fill="#0A0A0A" font-size="14">Peak extra Python threads</text>
<line x1="162" y1="458.0" x2="888" y2="458.0" stroke="#0A0A0A" stroke-width="1"/>
<text x="150" y="463.0" text-anchor="end" fill="#0A0A0A" font-size="12">0</text>
<line x1="162" y1="413.0" x2="888" y2="413.0" stroke="#0A0A0A" stroke-width="1"/>
<text x="150" y="418.0" text-anchor="end" fill="#0A0A0A" font-size="12">50</text>
<line x1="162" y1="368.0" x2="888" y2="368.0" stroke="#0A0A0A" stroke-width="1"/>
<text x="150" y="373.0" text-anchor="end" fill="#0A0A0A" font-size="12">100</text>
<line x1="162" y1="323.0" x2="888" y2="323.0" stroke="#0A0A0A" stroke-width="1"/>
<text x="150" y="328.0" text-anchor="end" fill="#0A0A0A" font-size="12">150</text>
<line x1="162" y1="278.0" x2="888" y2="278.0" stroke="#0A0A0A" stroke-width="1"/>
<text x="150" y="283.0" text-anchor="end" fill="#0A0A0A" font-size="12">200</text>
<rect x="196.8" y="458.0" width="112" height="0.0" rx="3" fill="#002FA7"/>
<text x="252.8" y="450.0" text-anchor="middle" fill="#0A0A0A" font-size="12">0</text>
<text x="252.8" y="484" text-anchor="middle" fill="#0A0A0A" font-size="12">asyncio</text>
<rect x="378.2" y="413.0" width="112" height="45.0" rx="3" fill="#242424"/>
<text x="434.2" y="405.0" text-anchor="middle" fill="#0A0A0A" font-size="12">50</text>
<text x="434.2" y="484" text-anchor="middle" fill="#0A0A0A" font-size="12">threads-50</text>
<rect x="559.8" y="368.0" width="112" height="90.0" rx="3" fill="#737373"/>
<text x="615.8" y="360.0" text-anchor="middle" fill="#0A0A0A" font-size="12">100</text>
<text x="615.8" y="484" text-anchor="middle" fill="#0A0A0A" font-size="12">threads-100</text>
<rect x="741.2" y="278.0" width="112" height="180.0" rx="3" fill="#737373"/>
<text x="797.2" y="270.0" text-anchor="middle" fill="#0A0A0A" font-size="12">200</text>
<text x="797.2" y="484" text-anchor="middle" fill="#0A0A0A" font-size="12">threads-200</text>
    <rect x="976" y="166" width="256" height="392" rx="0" class="card"/ style="fill: rgba(255,255,255,0.78); stroke: #D4D4D2; stroke-width: 1.15;"><rect x="976" y="166" width="6" height="392" rx="3" fill="#002FA7" opacity="0.95"/>
    <text x="1006" y="210" class="kicker" style="fill: #002FA7; font-size: 14.5px; font-weight: 700; letter-spacing: 1.9px;">KEY DATA</text>
    <text x="1006" y="262" class="metric" style="fill: #002FA7; font-size: 44px; font-weight: 520; letter-spacing: 0;">0 vs 200</text>
    <text x="1006" y="296" class="body" style="fill: #242424; font-size: 16.8px; font-weight: 470; letter-spacing: 0;">业务新增线程</text>
    <line x1="1006" y1="326" x2="1190" y2="326" class="axis"/ style="stroke: #D4D4D2; stroke-width: 1;">
    <text x="1006" y="370" class="h2" style="fill: #0A0A0A; font-size: 24px; font-weight: 560; letter-spacing: 0;">4.81s</text>
    <text x="1092" y="370" class="body" style="fill: #242424; font-size: 16.8px; font-weight: 470; letter-spacing: 0;">asyncio</text>
    <text x="1006" y="414" class="h2" style="fill: #0A0A0A; font-size: 24px; font-weight: 560; letter-spacing: 0;">1.62s</text>
    <text x="1092" y="414" class="body" style="fill: #242424; font-size: 16.8px; font-weight: 470; letter-spacing: 0;">threads-200</text>
    <text x="1006" y="484" class="small" style="fill: #737373; font-size: 13.5px; font-weight: 520; letter-spacing: 0;">结论：线程池可用更多线程换低延迟；协程优势是极低线程成本下承载并发。</text>

  </g>
  <text x="1232" y="692" text-anchor="end" class="small" style="fill: #737373; font-size: 13.5px; font-weight: 520; letter-spacing: 0;">15/20</text>
</svg>
