<svg xmlns="http://www.w3.org/2000/svg" viewBox="0 0 1280 720" width="1280" height="720" role="img" aria-label="结束页">
  <defs>
    <linearGradient id="bg" x1="0" y1="0" x2="1" y2="1">
      <stop offset="0%" stop-color="#0B1020"/>
      <stop offset="55%" stop-color="#0A0A0A"/>
      <stop offset="100%" stop-color="#172033"/>
    </linearGradient>
    <style>
      .page { font-family: "Inter", "Helvetica Neue", "Helvetica", "Noto Sans SC", "Microsoft YaHei", "Microsoft YaHei UI", "DengXian", "SimSun", "NSimSun", Arial, sans-serif; }
      .card { fill: rgba(255,255,255,0.78); stroke: #D4D4D2; stroke-width: 1.15; }
      .card2 { fill: rgba(255,255,255,0.88); stroke: #0A0A0A; stroke-width: 1.15; }
      .chartcard { fill: #FFFFFF; stroke: #0A0A0A; stroke-width: 1.15; }
      .kicker { fill: #002FA7; font-size: 14.5px; font-weight: 700; letter-spacing: 1.9px; }
      .title { fill: #0A0A0A; font-size: 39px; font-weight: 560; letter-spacing: 0; }
      .h1 { fill: #0A0A0A; font-size: 52px; font-weight: 360; letter-spacing: 0; }
      .h2 { fill: #0A0A0A; font-size: 24px; font-weight: 560; letter-spacing: 0; }
      .h3 { fill: #0A0A0A; font-size: 19.5px; font-weight: 620; letter-spacing: 0; }
      .body { fill: #242424; font-size: 16.8px; font-weight: 470; letter-spacing: 0; }
      .body2 { fill: #0A0A0A; font-size: 19.2px; font-weight: 560; letter-spacing: 0; }
      .small { fill: #737373; font-size: 13.5px; font-weight: 520; letter-spacing: 0; }
      .metric { fill: #002FA7; font-size: 44px; font-weight: 520; letter-spacing: 0; }
      .axis { stroke: #D4D4D2; stroke-width: 1; }
      .node { fill: rgba(255,255,255,0.82); stroke: #D4D4D2; stroke-width: 1.1; }
      .line { fill: none; stroke-width: 3; stroke-linecap: square; stroke-linejoin: miter; }
    </style>
  </defs>
  <rect class="page" width="1280" height="720" fill="#FAFAF8"/ style="font-family: "Inter", "Helvetica Neue", "Helvetica", "Noto Sans SC", "Microsoft YaHei", "Microsoft YaHei UI", "DengXian", "SimSun", "NSimSun", Arial, sans-serif;">
  <g class="swiss-grid">
  <line x1="80" y1="0" x2="80" y2="720" stroke="#D4D4D2" stroke-width="0.65" opacity="0.35"/>
  <line x1="150" y1="0" x2="150" y2="720" stroke="#D4D4D2" stroke-width="0.65" opacity="0.35"/>
  <line x1="220" y1="0" x2="220" y2="720" stroke="#D4D4D2" stroke-width="0.65" opacity="0.35"/>
  <line x1="290" y1="0" x2="290" y2="720" stroke="#D4D4D2" stroke-width="0.65" opacity="0.35"/>
  <line x1="360" y1="0" x2="360" y2="720" stroke="#D4D4D2" stroke-width="0.65" opacity="0.35"/>
  <line x1="430" y1="0" x2="430" y2="720" stroke="#D4D4D2" stroke-width="0.65" opacity="0.35"/>
  <line x1="500" y1="0" x2="500" y2="720" stroke="#D4D4D2" stroke-width="0.65" opacity="0.35"/>
  <line x1="570" y1="0" x2="570" y2="720" stroke="#D4D4D2" stroke-width="0.65" opacity="0.35"/>
  <line x1="640" y1="0" x2="640" y2="720" stroke="#D4D4D2" stroke-width="0.65" opacity="0.35"/>
  <line x1="710" y1="0" x2="710" y2="720" stroke="#D4D4D2" stroke-width="0.65" opacity="0.35"/>
  <line x1="780" y1="0" x2="780" y2="720" stroke="#D4D4D2" stroke-width="0.65" opacity="0.35"/>
  <line x1="850" y1="0" x2="850" y2="720" stroke="#D4D4D2" stroke-width="0.65" opacity="0.35"/>
  <line x1="920" y1="0" x2="920" y2="720" stroke="#D4D4D2" stroke-width="0.65" opacity="0.35"/>
  <line x1="990" y1="0" x2="990" y2="720" stroke="#D4D4D2" stroke-width="0.65" opacity="0.35"/>
  <line x1="1060" y1="0" x2="1060" y2="720" stroke="#D4D4D2" stroke-width="0.65" opacity="0.35"/>
  <line x1="1130" y1="0" x2="1130" y2="720" stroke="#D4D4D2" stroke-width="0.65" opacity="0.35"/>
  <line x1="1200" y1="0" x2="1200" y2="720" stroke="#D4D4D2" stroke-width="0.65" opacity="0.35"/>
  <line x1="1270" y1="0" x2="1270" y2="720" stroke="#D4D4D2" stroke-width="0.65" opacity="0.35"/>
  <line x1="0" y1="80" x2="1280" y2="80" stroke="#D4D4D2" stroke-width="0.65" opacity="0.22"/>
  <line x1="0" y1="150" x2="1280" y2="150" stroke="#D4D4D2" stroke-width="0.65" opacity="0.22"/>
  <line x1="0" y1="220" x2="1280" y2="220" stroke="#D4D4D2" stroke-width="0.65" opacity="0.22"/>
  <line x1="0" y1="290" x2="1280" y2="290" stroke="#D4D4D2" stroke-width="0.65" opacity="0.22"/>
  <line x1="0" y1="360" x2="1280" y2="360" stroke="#D4D4D2" stroke-width="0.65" opacity="0.22"/>
  <line x1="0" y1="430" x2="1280" y2="430" stroke="#D4D4D2" stroke-width="0.65" opacity="0.22"/>
  <line x1="0" y1="500" x2="1280" y2="500" stroke="#D4D4D2" stroke-width="0.65" opacity="0.22"/>
  <line x1="0" y1="570" x2="1280" y2="570" stroke="#D4D4D2" stroke-width="0.65" opacity="0.22"/>
  <line x1="0" y1="640" x2="1280" y2="640" stroke="#D4D4D2" stroke-width="0.65" opacity="0.22"/>
  <line x1="0" y1="710" x2="1280" y2="710" stroke="#D4D4D2" stroke-width="0.65" opacity="0.22"/>

  </g>
  <g class="page" style="font-family: "Inter", "Helvetica Neue", "Helvetica", "Noto Sans SC", "Microsoft YaHei", "Microsoft YaHei UI", "DengXian", "SimSun", "NSimSun", Arial, sans-serif;">
    <text x="640" y="310" text-anchor="middle" fill="#0A0A0A" font-size="54" font-weight="850">谢谢</text>
    <text x="640" y="374" text-anchor="middle" fill="#242424" font-size="24" font-weight="600">协程技术调研</text>
    <path d="M 7.498 10.046 Q 7.498 11.146 6.803 11.773 Q 6.109 12.4 4.913 12.4 Q 4.07 12.4 3.206 11.97 Q 2.346 11.54 1.6 10.741 L 1.6 12.412 Q 2.267 13.103 3.113 13.472 Q 3.963 13.843 5.107 13.843 Q 6.952 13.843 8.078 12.853 Q 9.202 11.866 9.202 10.178 Q 9.202 8.674 8.511 7.574 Q 7.822 6.477 6.154 5.327 Q 4.447 4.148 3.87 3.639 Q 3.296 3.13 3.066 2.663 Q 2.838 2.197 2.838 1.53 L 9.607 1.53 L 9.607 0 L 1.046 0 L 1.046 0.678 Q 1.046 1.853 1.367 2.675 Q 1.688 3.499 2.424 4.275 Q 3.164 5.054 4.728 6.143 Q 6.328 7.268 6.913 8.117 Q 7.498 8.966 7.498 10.046 Z M 18.729 13.615 L 18.729 4.624 L 20.768 4.624 L 20.768 3.201 L 18.729 3.201 L 18.729 0 L 17.061 0 L 17.061 3.201 L 10.705 3.201 L 10.705 4.545 Q 12.401 6.452 14.113 8.938 Q 15.829 11.427 16.946 13.615 L 18.729 13.615 Z M 12.64 4.624 L 17.061 4.624 L 17.061 11.109 Q 16.147 9.467 15.101 7.923 Q 14.054 6.382 12.64 4.624 Z M 26.12 0 L 26.12 11.647 Q 25.718 11.242 24.754 10.741 Q 23.792 10.24 22.976 10.038 L 22.976 11.725 Q 24.056 12.023 25.285 12.679 Q 26.517 13.334 27.175 13.913 L 27.828 13.913 L 27.828 0 L 26.12 0 Z M 39.165 10.046 Q 39.165 11.146 38.47 11.773 Q 37.776 12.4 36.58 12.4 Q 35.737 12.4 34.873 11.97 Q 34.013 11.54 33.267 10.741 L 33.267 12.412 Q 33.934 13.103 34.78 13.472 Q 35.63 13.843 36.774 13.843 Q 38.619 13.843 39.744 12.853 Q 40.869 11.866 40.869 10.178 Q 40.869 8.674 40.178 7.574 Q 39.489 6.477 37.821 5.327 Q 36.114 4.148 35.537 3.639 Q 34.963 3.13 34.733 2.663 Q 34.505 2.197 34.505 1.53 L 41.274 1.53 L 41.274 0 L 32.713 0 L 32.713 0.678 Q 32.713 1.853 33.034 2.675 Q 33.354 3.499 34.091 4.275 Q 34.831 5.054 36.395 6.143 Q 37.995 7.268 38.58 8.117 Q 39.165 8.966 39.165 10.046 Z M 51.847 12.552 Q 49.701 8.806 48.475 5.619 Q 47.251 2.436 46.959 0 L 45.167 0 Q 45.494 2.399 46.706 5.476 Q 47.918 8.553 49.949 12.094 L 43.199 12.094 L 43.199 13.615 L 51.847 13.615 L 51.847 12.552 Z M 60.276 10.046 Q 60.276 11.146 59.582 11.773 Q 58.887 12.4 57.692 12.4 Q 56.848 12.4 55.985 11.97 Q 55.124 11.54 54.379 10.741 L 54.379 12.412 Q 55.045 13.103 55.892 13.472 Q 56.741 13.843 57.886 13.843 Q 59.731 13.843 60.856 12.853 Q 61.981 11.866 61.981 10.178 Q 61.981 8.674 61.289 7.574 Q 60.6 6.477 58.932 5.327 Q 57.225 4.148 56.648 3.639 Q 56.075 3.13 55.844 2.663 Q 55.616 2.197 55.616 1.53 L 62.386 1.53 L 62.386 0 L 53.825 0 L 53.825 0.678 Q 53.825 1.853 54.145 2.675 Q 54.466 3.499 55.203 4.275 Q 55.942 5.054 57.506 6.143 Q 59.106 7.268 59.691 8.117 Q 60.276 8.966 60.276 10.046 Z M 72.958 12.552 Q 70.812 8.806 69.586 5.619 Q 68.363 2.436 68.07 0 L 66.279 0 Q 66.605 2.399 67.817 5.476 Q 69.029 8.553 71.06 12.094 L 64.31 12.094 L 64.31 13.615 L 72.958 13.615 L 72.958 12.552 Z M 89.973 2.18 L 88.488 -2.506 L 87.259 -2.506 L 88.339 2.18 L 89.973 2.18 Z M 117.045 10.766 Q 116.393 7.549 114.548 4.14 Q 116.553 1.415 117.836 -0.43 L 116.623 -1.361 Q 115.164 0.765 113.741 2.787 Q 111.842 -0.166 109.187 -2.242 Q 108.836 -1.749 108.186 -1.063 Q 110.979 1.029 112.86 4.033 Q 110.962 6.688 109.117 9.132 L 110.205 9.922 Q 112.104 7.428 113.634 5.369 Q 114.846 7.619 115.673 10.766 L 108.256 10.766 L 108.256 12.049 L 113.108 12.049 Q 112.492 13.264 111.823 14.352 L 113.038 14.968 Q 113.915 13.562 114.407 12.541 L 113.44 12.049 L 118.274 12.049 L 118.274 10.766 L 117.045 10.766 Z M 123.32 14.617 L 124.709 14.617 L 124.709 0.219 Q 124.709 -2.064 122.617 -2.084 Q 121.686 -2.101 119.804 -2.047 Q 119.698 -1.327 119.54 -0.484 Q 120.963 -0.658 121.967 -0.658 Q 123.32 -0.678 123.32 0.658 L 123.32 14.617 Z M 119.225 12.859 L 120.561 12.859 L 120.561 1.749 L 119.225 1.749 L 119.225 12.859 Z M 127.556 10.696 L 136.1 10.696 L 136.1 6.795 L 134.938 6.795 L 134.938 7.18 L 128.751 7.18 L 128.751 5.985 Q 128.751 0.976 126.923 -2.225 Q 126.467 -1.662 125.992 -1.274 Q 127.573 1.17 127.556 6.654 L 127.556 10.696 Z M 136.643 8.288 L 140.336 8.288 L 140.336 11.064 L 141.565 11.064 L 141.565 8.288 L 143.483 8.288 L 143.483 7.234 L 141.565 7.234 L 141.565 -0.273 Q 141.565 -2.047 139.616 -2.047 L 137.436 -2.047 Q 137.329 -1.327 137.172 -0.695 Q 138.28 -0.782 139.351 -0.799 Q 140.336 -0.799 140.336 0.202 L 140.336 7.234 L 136.643 7.234 L 136.643 8.288 Z M 126.256 13.492 L 131.282 13.492 L 131.282 14.898 L 132.514 14.898 L 132.514 13.492 L 137.295 13.492 L 137.295 14.898 L 138.524 14.898 L 138.524 13.492 L 143.517 13.492 L 143.517 12.437 L 138.524 12.437 L 138.524 11.295 L 137.295 11.295 L 137.295 12.437 L 132.514 12.437 L 132.514 11.295 L 131.282 11.295 L 131.282 12.437 L 126.256 12.437 L 126.256 13.492 Z M 128.928 3.752 L 136.75 3.752 L 136.75 2.768 L 133.358 2.768 L 133.358 -0.377 Q 133.358 -2.101 131.282 -2.101 L 130.033 -2.101 Q 129.929 -1.468 129.772 -0.852 Q 130.492 -0.939 131.125 -0.939 Q 132.196 -0.939 132.196 0.096 L 132.196 2.768 L 128.928 2.768 L 128.928 3.752 Z M 134.938 9.712 L 128.751 9.712 L 128.751 8.165 L 134.938 8.165 L 134.938 9.712 Z M 129.524 5.968 L 135.94 5.968 L 135.94 4.984 L 129.524 4.984 L 129.524 5.968 Z M 138.209 6.179 Q 138.963 4.508 139.686 2.787 L 138.508 2.312 Q 137.821 4.103 137.084 5.757 L 138.209 6.179 Z M 128.155 -0.607 Q 129.243 0.835 129.983 2.225 L 130.967 1.679 Q 130.053 0.045 129.119 -1.274 Q 128.61 -0.869 128.155 -0.607 Z M 134.323 1.749 L 135.307 2.295 Q 136.258 0.922 137.048 -0.377 L 136.03 -1.01 Q 135.166 0.501 134.323 1.749 Z M 144.836 12.243 L 152.252 12.243 L 152.252 13.334 L 145.696 13.334 L 145.696 14.282 L 160.251 14.282 L 160.251 13.334 L 153.518 13.334 L 153.518 12.243 L 160.954 12.243 L 160.954 8.393 L 159.688 8.393 L 159.688 11.295 L 153.518 11.295 L 153.518 6.986 L 152.252 6.986 L 152.252 11.295 L 146.101 11.295 L 146.101 8.393 L 144.836 8.393 L 144.836 12.243 Z M 161.711 0.236 Q 161.323 -0.256 160.867 -0.852 Q 158.58 0.889 157.07 3.383 L 157.07 -2.399 L 155.892 -2.399 L 155.892 3.437 Q 154.311 0.799 151.901 -0.889 Q 151.479 -0.326 151.006 0.149 Q 153.959 1.783 155.627 4.281 L 152.868 4.281 L 152.868 5.406 L 155.892 5.406 L 155.892 6.812 L 157.07 6.812 L 157.07 5.406 L 160.813 5.406 L 160.813 4.281 L 157.298 4.281 Q 159.092 1.713 161.711 0.236 Z M 144.096 0.115 Q 146.383 1.783 147.963 4.281 L 144.712 4.281 L 144.712 5.406 L 148.385 5.406 L 148.385 6.812 L 149.563 6.812 L 149.563 5.406 L 152.272 5.406 L 152.272 4.281 L 149.563 4.281 L 149.563 2.838 L 150.179 3.561 Q 151.288 2.857 152.289 2.047 L 151.479 1.17 Q 150.725 1.82 149.563 2.663 L 149.563 -2.399 L 148.385 -2.399 L 148.385 3.383 Q 147.049 0.976 144.959 -0.922 Q 144.538 -0.36 144.096 0.115 Z M 158.828 10.221 L 158.828 9.307 L 154.432 9.307 L 154.432 10.221 L 158.828 10.221 Z M 158.828 8.252 L 158.828 7.338 L 154.432 7.338 L 154.432 8.252 L 158.828 8.252 Z M 146.945 10.221 L 151.338 10.221 L 151.338 9.307 L 146.945 9.307 L 146.945 10.221 Z M 146.979 8.252 L 151.338 8.252 L 151.338 7.338 L 146.979 7.338 L 146.979 8.252 Z" fill="#737373" transform="translate(558.622 424) scale(1 -1)"/>
  </g>
  <text x="1232" y="692" text-anchor="end" class="small" style="fill: #737373; font-size: 13.5px; font-weight: 520; letter-spacing: 0;">20/20</text>
</svg>
