<svg xmlns="http://www.w3.org/2000/svg" viewBox="0 0 1280 720" width="1280" height="720" role="img" aria-label="扩展性与倍率：线程池用资源换延迟，协程用少线程换承载能力">
  <defs>
    <linearGradient id="bg" x1="0" y1="0" x2="1" y2="1">
      <stop offset="0%" stop-color="#0B1020"/>
      <stop offset="55%" stop-color="#0A0A0A"/>
      <stop offset="100%" stop-color="#172033"/>
    </linearGradient>
    <linearGradient id="blue" x1="0" y1="0" x2="1" y2="1">
      <stop offset="0%" stop-color="#002FA7"/>
      <stop offset="100%" stop-color="#002FA7"/>
    </linearGradient>
    <style>
      .page { font-family: "Inter", "Helvetica Neue", "Helvetica", "Noto Sans SC", "Microsoft YaHei", "Microsoft YaHei UI", "DengXian", "SimSun", "NSimSun", Arial, sans-serif; }
      .card { fill: rgba(255,255,255,0.78); stroke: #D4D4D2; stroke-width: 1.15; }
      .card2 { fill: rgba(255,255,255,0.88); stroke: #0A0A0A; stroke-width: 1.15; }
      .chartcard { fill: #FFFFFF; stroke: #0A0A0A; stroke-width: 1.15; }
      .kicker { fill: #002FA7; font-size: 14.5px; font-weight: 700; letter-spacing: 1.9px; }
      .title { fill: #0A0A0A; font-size: 39px; font-weight: 560; letter-spacing: 0; }
      .h1 { fill: #0A0A0A; font-size: 52px; font-weight: 360; letter-spacing: 0; }
      .h2 { fill: #0A0A0A; font-size: 24px; font-weight: 560; letter-spacing: 0; }
      .h3 { fill: #0A0A0A; font-size: 19.5px; font-weight: 620; letter-spacing: 0; }
      .body { fill: #242424; font-size: 16.8px; font-weight: 470; letter-spacing: 0; }
      .body2 { fill: #0A0A0A; font-size: 19.2px; font-weight: 560; letter-spacing: 0; }
      .small { fill: #737373; font-size: 13.5px; font-weight: 520; letter-spacing: 0; }
      .metric { fill: #002FA7; font-size: 44px; font-weight: 520; letter-spacing: 0; }
      .axis { stroke: #D4D4D2; stroke-width: 1; }
      .node { fill: rgba(255,255,255,0.82); stroke: #D4D4D2; stroke-width: 1.1; }
      .line { fill: none; stroke-width: 3; stroke-linecap: square; stroke-linejoin: miter; }
    </style>
  </defs>
  <rect class="page" width="1280" height="720" fill="#FAFAF8"/>
  <g class="swiss-grid">
  <line x1="80" y1="0" x2="80" y2="720" stroke="#D4D4D2" stroke-width="0.65" opacity="0.35"/>
  <line x1="150" y1="0" x2="150" y2="720" stroke="#D4D4D2" stroke-width="0.65" opacity="0.35"/>
  <line x1="220" y1="0" x2="220" y2="720" stroke="#D4D4D2" stroke-width="0.65" opacity="0.35"/>
  <line x1="290" y1="0" x2="290" y2="720" stroke="#D4D4D2" stroke-width="0.65" opacity="0.35"/>
  <line x1="360" y1="0" x2="360" y2="720" stroke="#D4D4D2" stroke-width="0.65" opacity="0.35"/>
  <line x1="430" y1="0" x2="430" y2="720" stroke="#D4D4D2" stroke-width="0.65" opacity="0.35"/>
  <line x1="500" y1="0" x2="500" y2="720" stroke="#D4D4D2" stroke-width="0.65" opacity="0.35"/>
  <line x1="570" y1="0" x2="570" y2="720" stroke="#D4D4D2" stroke-width="0.65" opacity="0.35"/>
  <line x1="640" y1="0" x2="640" y2="720" stroke="#D4D4D2" stroke-width="0.65" opacity="0.35"/>
  <line x1="710" y1="0" x2="710" y2="720" stroke="#D4D4D2" stroke-width="0.65" opacity="0.35"/>
  <line x1="780" y1="0" x2="780" y2="720" stroke="#D4D4D2" stroke-width="0.65" opacity="0.35"/>
  <line x1="850" y1="0" x2="850" y2="720" stroke="#D4D4D2" stroke-width="0.65" opacity="0.35"/>
  <line x1="920" y1="0" x2="920" y2="720" stroke="#D4D4D2" stroke-width="0.65" opacity="0.35"/>
  <line x1="990" y1="0" x2="990" y2="720" stroke="#D4D4D2" stroke-width="0.65" opacity="0.35"/>
  <line x1="1060" y1="0" x2="1060" y2="720" stroke="#D4D4D2" stroke-width="0.65" opacity="0.35"/>
  <line x1="1130" y1="0" x2="1130" y2="720" stroke="#D4D4D2" stroke-width="0.65" opacity="0.35"/>
  <line x1="1200" y1="0" x2="1200" y2="720" stroke="#D4D4D2" stroke-width="0.65" opacity="0.35"/>
  <line x1="1270" y1="0" x2="1270" y2="720" stroke="#D4D4D2" stroke-width="0.65" opacity="0.35"/>
  <line x1="0" y1="80" x2="1280" y2="80" stroke="#D4D4D2" stroke-width="0.65" opacity="0.22"/>
  <line x1="0" y1="150" x2="1280" y2="150" stroke="#D4D4D2" stroke-width="0.65" opacity="0.22"/>
  <line x1="0" y1="220" x2="1280" y2="220" stroke="#D4D4D2" stroke-width="0.65" opacity="0.22"/>
  <line x1="0" y1="290" x2="1280" y2="290" stroke="#D4D4D2" stroke-width="0.65" opacity="0.22"/>
  <line x1="0" y1="360" x2="1280" y2="360" stroke="#D4D4D2" stroke-width="0.65" opacity="0.22"/>
  <line x1="0" y1="430" x2="1280" y2="430" stroke="#D4D4D2" stroke-width="0.65" opacity="0.22"/>
  <line x1="0" y1="500" x2="1280" y2="500" stroke="#D4D4D2" stroke-width="0.65" opacity="0.22"/>
  <line x1="0" y1="570" x2="1280" y2="570" stroke="#D4D4D2" stroke-width="0.65" opacity="0.22"/>
  <line x1="0" y1="640" x2="1280" y2="640" stroke="#D4D4D2" stroke-width="0.65" opacity="0.22"/>
  <line x1="0" y1="710" x2="1280" y2="710" stroke="#D4D4D2" stroke-width="0.65" opacity="0.22"/>

  </g>
  <g class="page">
    <text x="50" y="52" class="kicker" text-anchor="start">I/O SCALING</text>
    <text x="50" y="96" class="title" text-anchor="start">扩展性与倍率：线程池用资源换延迟，协程用少线程换承载能力</text>
    <text x="50" y="128" class="body" text-anchor="start">两张图分开回答“谁更快”和“代价是什么”。</text>

    <rect x="48" y="166" width="900" height="392" rx="0" class="chartcard"/>
    <text x="120" y="222" fill="#0A0A0A" font-size="21" font-weight="850">Scaling: compare the best thread pool against asyncio</text>
<line x1="152" y1="456" x2="882" y2="456" stroke="#0A0A0A" stroke-width="1.2"/>
<line x1="152" y1="260" x2="152" y2="456" stroke="#0A0A0A" stroke-width="1.2"/>
<text x="90" y="416" transform="rotate(-90 90 416)" fill="#0A0A0A" font-size="14">Median duration (s)</text>
<text x="498.0" y="510" text-anchor="middle" fill="#0A0A0A" font-size="13">TCP request count</text>
<line x1="152" y1="456.0" x2="882" y2="456.0" stroke="#0A0A0A" stroke-width="1"/>
<text x="140" y="461.0" text-anchor="end" fill="#0A0A0A" font-size="12">0</text>
<line x1="152" y1="416.8" x2="882" y2="416.8" stroke="#0A0A0A" stroke-width="1"/>
<text x="140" y="421.8" text-anchor="end" fill="#0A0A0A" font-size="12">1</text>
<line x1="152" y1="377.6" x2="882" y2="377.6" stroke="#0A0A0A" stroke-width="1"/>
<text x="140" y="382.6" text-anchor="end" fill="#0A0A0A" font-size="12">2</text>
<line x1="152" y1="338.4" x2="882" y2="338.4" stroke="#0A0A0A" stroke-width="1"/>
<text x="140" y="343.4" text-anchor="end" fill="#0A0A0A" font-size="12">3</text>
<line x1="152" y1="299.2" x2="882" y2="299.2" stroke="#0A0A0A" stroke-width="1"/>
<text x="140" y="304.2" text-anchor="end" fill="#0A0A0A" font-size="12">4</text>
<line x1="152" y1="260.0" x2="882" y2="260.0" stroke="#0A0A0A" stroke-width="1"/>
<text x="140" y="265.0" text-anchor="end" fill="#0A0A0A" font-size="12">5</text>
<text x="166.6" y="480" text-anchor="middle" fill="#0A0A0A" font-size="11">100</text>
<text x="225.0" y="480" text-anchor="middle" fill="#0A0A0A" font-size="11">500</text>
<text x="298.0" y="480" text-anchor="middle" fill="#0A0A0A" font-size="11">1000</text>
<text x="590.0" y="480" text-anchor="middle" fill="#0A0A0A" font-size="11">3000</text>
<text x="882.0" y="480" text-anchor="middle" fill="#0A0A0A" font-size="11">5000</text>
<line x1="164" y1="278" x2="188" y2="278" stroke="#002FA7" stroke-width="4" stroke-linecap="round"/>
<circle cx="176" cy="278" r="4" fill="#002FA7"/>
<text x="200" y="283" fill="#0A0A0A" font-size="12">asyncio</text>
<line x1="164" y1="302" x2="188" y2="302" stroke="#737373" stroke-width="4" stroke-linecap="round"/>
<circle cx="176" cy="302" r="4" fill="#737373"/>
<text x="200" y="307" fill="#0A0A0A" font-size="12">threads-200</text>
<polyline points="166.6,449.8 225.0,434.0 298.0,414.3 590.0,342.4 882.0,267.4" fill="none" stroke="#002FA7" stroke-width="4" stroke-linecap="round" stroke-linejoin="round"/>
<circle cx="166.6" cy="449.8" r="4.5" fill="#002FA7"/>
<circle cx="225.0" cy="434.0" r="4.5" fill="#002FA7"/>
<circle cx="298.0" cy="414.3" r="4.5" fill="#002FA7"/>
<circle cx="590.0" cy="342.4" r="4.5" fill="#002FA7"/>
<circle cx="882.0" cy="267.4" r="4.5" fill="#002FA7"/>
<polyline points="166.6,451.2 225.0,443.6 298.0,435.9 590.0,412.3 882.0,392.3" fill="none" stroke="#737373" stroke-width="4" stroke-linecap="round" stroke-linejoin="round"/>
<circle cx="166.6" cy="451.2" r="4.5" fill="#737373"/>
<circle cx="225.0" cy="443.6" r="4.5" fill="#737373"/>
<circle cx="298.0" cy="435.9" r="4.5" fill="#737373"/>
<circle cx="590.0" cy="412.3" r="4.5" fill="#737373"/>
<circle cx="882.0" cy="392.3" r="4.5" fill="#737373"/>
    <rect x="976" y="166" width="256" height="392" rx="0" class="card"/><rect x="976" y="166" width="6" height="392" rx="3" fill="#002FA7" opacity="0.95"/>
    <text x="1006" y="210" class="kicker">RATIO @ 5000</text>
    <text x="1006" y="262" class="metric">0.34×</text>
    <text x="1006" y="296" class="body">threads-200耗时 / asyncio耗时</text>
    <line x1="1006" y1="326" x2="1190" y2="326" class="axis"/>
    <text x="1006" y="370" class="h2">200</text>
    <text x="1078" y="370" class="body">新增线程</text>
    <text x="1006" y="414" class="h2">3.4×</text>
    <text x="1078" y="414" class="body">RSS增量倍率</text>
    <text x="1006" y="484" class="small">速度、线程数、内存增量必须一起读。</text>

  </g>
  <text x="1232" y="692" text-anchor="end" class="small">16/20</text>
</svg>
