<svg xmlns="http://www.w3.org/2000/svg" viewBox="0 0 1280 720" width="1280" height="720" role="img" aria-label="协程底层是状态保存、排队与恢复">
  <defs>
    <linearGradient id="bg" x1="0" y1="0" x2="1" y2="1">
      <stop offset="0%" stop-color="#0B1020"/>
      <stop offset="55%" stop-color="#0A0A0A"/>
      <stop offset="100%" stop-color="#172033"/>
    </linearGradient>
    <linearGradient id="blue" x1="0" y1="0" x2="1" y2="1">
      <stop offset="0%" stop-color="#002FA7"/>
      <stop offset="100%" stop-color="#002FA7"/>
    </linearGradient>
    <style>
      .page { font-family: "Inter", "Helvetica Neue", "Helvetica", "Noto Sans SC", "Microsoft YaHei", "Microsoft YaHei UI", "DengXian", "SimSun", "NSimSun", Arial, sans-serif; }
      .card { fill: rgba(255,255,255,0.78); stroke: #D4D4D2; stroke-width: 1.15; }
      .card2 { fill: rgba(255,255,255,0.88); stroke: #0A0A0A; stroke-width: 1.15; }
      .chartcard { fill: #FFFFFF; stroke: #0A0A0A; stroke-width: 1.15; }
      .kicker { fill: #002FA7; font-size: 14.5px; font-weight: 700; letter-spacing: 1.9px; }
      .title { fill: #0A0A0A; font-size: 39px; font-weight: 560; letter-spacing: 0; }
      .h1 { fill: #0A0A0A; font-size: 52px; font-weight: 360; letter-spacing: 0; }
      .h2 { fill: #0A0A0A; font-size: 24px; font-weight: 560; letter-spacing: 0; }
      .h3 { fill: #0A0A0A; font-size: 19.5px; font-weight: 620; letter-spacing: 0; }
      .body { fill: #242424; font-size: 16.8px; font-weight: 470; letter-spacing: 0; }
      .body2 { fill: #0A0A0A; font-size: 19.2px; font-weight: 560; letter-spacing: 0; }
      .small { fill: #737373; font-size: 13.5px; font-weight: 520; letter-spacing: 0; }
      .metric { fill: #002FA7; font-size: 44px; font-weight: 520; letter-spacing: 0; }
      .axis { stroke: #D4D4D2; stroke-width: 1; }
      .node { fill: rgba(255,255,255,0.82); stroke: #D4D4D2; stroke-width: 1.1; }
      .line { fill: none; stroke-width: 3; stroke-linecap: square; stroke-linejoin: miter; }
    </style>
  </defs>
  <rect class="page" width="1280" height="720" fill="#FAFAF8"/>
  <g class="swiss-grid">
  <line x1="80" y1="0" x2="80" y2="720" stroke="#D4D4D2" stroke-width="0.65" opacity="0.35"/>
  <line x1="150" y1="0" x2="150" y2="720" stroke="#D4D4D2" stroke-width="0.65" opacity="0.35"/>
  <line x1="220" y1="0" x2="220" y2="720" stroke="#D4D4D2" stroke-width="0.65" opacity="0.35"/>
  <line x1="290" y1="0" x2="290" y2="720" stroke="#D4D4D2" stroke-width="0.65" opacity="0.35"/>
  <line x1="360" y1="0" x2="360" y2="720" stroke="#D4D4D2" stroke-width="0.65" opacity="0.35"/>
  <line x1="430" y1="0" x2="430" y2="720" stroke="#D4D4D2" stroke-width="0.65" opacity="0.35"/>
  <line x1="500" y1="0" x2="500" y2="720" stroke="#D4D4D2" stroke-width="0.65" opacity="0.35"/>
  <line x1="570" y1="0" x2="570" y2="720" stroke="#D4D4D2" stroke-width="0.65" opacity="0.35"/>
  <line x1="640" y1="0" x2="640" y2="720" stroke="#D4D4D2" stroke-width="0.65" opacity="0.35"/>
  <line x1="710" y1="0" x2="710" y2="720" stroke="#D4D4D2" stroke-width="0.65" opacity="0.35"/>
  <line x1="780" y1="0" x2="780" y2="720" stroke="#D4D4D2" stroke-width="0.65" opacity="0.35"/>
  <line x1="850" y1="0" x2="850" y2="720" stroke="#D4D4D2" stroke-width="0.65" opacity="0.35"/>
  <line x1="920" y1="0" x2="920" y2="720" stroke="#D4D4D2" stroke-width="0.65" opacity="0.35"/>
  <line x1="990" y1="0" x2="990" y2="720" stroke="#D4D4D2" stroke-width="0.65" opacity="0.35"/>
  <line x1="1060" y1="0" x2="1060" y2="720" stroke="#D4D4D2" stroke-width="0.65" opacity="0.35"/>
  <line x1="1130" y1="0" x2="1130" y2="720" stroke="#D4D4D2" stroke-width="0.65" opacity="0.35"/>
  <line x1="1200" y1="0" x2="1200" y2="720" stroke="#D4D4D2" stroke-width="0.65" opacity="0.35"/>
  <line x1="1270" y1="0" x2="1270" y2="720" stroke="#D4D4D2" stroke-width="0.65" opacity="0.35"/>
  <line x1="0" y1="80" x2="1280" y2="80" stroke="#D4D4D2" stroke-width="0.65" opacity="0.22"/>
  <line x1="0" y1="150" x2="1280" y2="150" stroke="#D4D4D2" stroke-width="0.65" opacity="0.22"/>
  <line x1="0" y1="220" x2="1280" y2="220" stroke="#D4D4D2" stroke-width="0.65" opacity="0.22"/>
  <line x1="0" y1="290" x2="1280" y2="290" stroke="#D4D4D2" stroke-width="0.65" opacity="0.22"/>
  <line x1="0" y1="360" x2="1280" y2="360" stroke="#D4D4D2" stroke-width="0.65" opacity="0.22"/>
  <line x1="0" y1="430" x2="1280" y2="430" stroke="#D4D4D2" stroke-width="0.65" opacity="0.22"/>
  <line x1="0" y1="500" x2="1280" y2="500" stroke="#D4D4D2" stroke-width="0.65" opacity="0.22"/>
  <line x1="0" y1="570" x2="1280" y2="570" stroke="#D4D4D2" stroke-width="0.65" opacity="0.22"/>
  <line x1="0" y1="640" x2="1280" y2="640" stroke="#D4D4D2" stroke-width="0.65" opacity="0.22"/>
  <line x1="0" y1="710" x2="1280" y2="710" stroke="#D4D4D2" stroke-width="0.65" opacity="0.22"/>

  </g>
  <g class="page">
    <text x="50" y="52" class="kicker" text-anchor="start">STATE MACHINE</text>
    <text x="50" y="96" class="title" text-anchor="start">协程底层是状态保存、排队与恢复</text>
    <text x="50" y="128" class="body" text-anchor="start">await 触发保存现场、注册等待、让出线程，并在事件就绪后恢复执行。</text>

    <rect x="48" y="154" width="1184" height="502" rx="0" class="card2"/><rect x="48" y="154" width="6" height="502" rx="3" fill="#002FA7" opacity="0.95"/>
    <text x="82" y="196" class="kicker">COROUTINE LOWERING</text>

    <rect x="82" y="224" width="300" height="188" rx="0" fill="rgba(255,255,255,0.94)" stroke="rgba(255,255,255,0.18)"/>
    <text x="108" y="260" class="small">async def fetch():</text>
    <text x="108" y="292" class="small">    conn = await open()</text>
    <text x="108" y="324" class="small">    data = await read(conn)</text>
    <text x="108" y="356" class="small">    return parse(data)</text>
    <text x="108" y="392" class="body">await 是协程的可暂停点，普通函数调用会继续占用当前调用栈。</text>

    <path d="M404 318 L474 318" class="line" stroke="#737373"/>
    <polygon points="474,318 456,307 456,329" fill="#737373"/>

    <rect x="496" y="202" width="344" height="242" rx="0" fill="rgba(0,47,167,0.10)" stroke="#002FA7" stroke-width="1.4"/>
    <text x="528" y="238" class="kicker">COROUTINE FRAME</text>
    <text x="528" y="268" class="small">挂起时被保存到堆上的运行时对象</text>
    <rect x="528" y="288" width="276" height="32" rx="10" fill="rgba(255,255,255,0.94)" stroke="rgba(255,255,255,0.16)"/>
    <text x="548" y="310" class="small">locals：conn / data / 临时变量</text>
    <rect x="528" y="330" width="276" height="32" rx="10" fill="rgba(255,255,255,0.94)" stroke="rgba(255,255,255,0.16)"/>
    <text x="548" y="352" class="small">state：下一条待执行指令</text>
    <rect x="528" y="372" width="276" height="32" rx="10" fill="rgba(255,255,255,0.94)" stroke="rgba(255,255,255,0.16)"/>
    <text x="548" y="394" class="small">slot：返回值 / 异常传播</text>
    <rect x="528" y="414" width="276" height="32" rx="10" fill="rgba(255,255,255,0.94)" stroke="rgba(255,255,255,0.16)"/>
    <text x="548" y="436" class="small">continuation：恢复入口</text>

    <path d="M862 318 L922 318" class="line" stroke="#737373"/>
    <polygon points="922,318 904,307 904,329" fill="#737373"/>

    <rect x="944" y="202" width="246" height="242" rx="0" fill="rgba(255,255,255,0.72)" stroke="rgba(255,255,255,0.18)"/>
    <text x="976" y="238" class="kicker">RUNTIME QUEUES</text>
    <text x="976" y="272" class="body">1. awaiter 注册 I/O 等待</text>
    <text x="976" y="306" class="body">2. 当前任务从线程让出</text>
    <text x="976" y="340" class="body">3. 事件完成后进 ready queue</text>
    <text x="976" y="374" class="body">4. event loop 取出并 resume</text>
    <text x="976" y="410" class="small">线程没有消失，只是不被等待任务独占。</text>

    <rect x="82" y="476" width="360" height="92" rx="0" fill="rgba(0,47,167,0.08)" stroke="#002FA7"/>
    <text x="110" y="514" class="h3">控制权发生了什么？</text>
    <text x="110" y="546" class="body">保存现场 → 返回事件循环 → 调度其他可运行任务</text>
    <rect x="472" y="476" width="360" height="92" rx="0" fill="rgba(0,47,167,0.08)" stroke="#002FA7"/>
    <text x="500" y="514" class="h3">数据结构发生了什么？</text>
    <text x="500" y="546" class="body">协程帧记录 locals / state / slot / continuation</text>
    <rect x="862" y="476" width="328" height="92" rx="0" fill="rgba(0,47,167,0.10)" stroke="#002FA7"/>
    <text x="890" y="514" class="h3">一句话结论</text>
    <text x="890" y="546" class="body">await = 保存现场 + 让出线程 + 就绪后恢复</text>

  </g>
  <text x="1232" y="692" text-anchor="end" class="small">08/20</text>
</svg>
