<svg xmlns="http://www.w3.org/2000/svg" viewBox="0 0 1280 720" width="1280" height="720" role="img" aria-label="并发模型一步步降低等待成本">
  <defs>
    <linearGradient id="bg" x1="0" y1="0" x2="1" y2="1">
      <stop offset="0%" stop-color="#0B1020"/>
      <stop offset="55%" stop-color="#0A0A0A"/>
      <stop offset="100%" stop-color="#172033"/>
    </linearGradient>
    <linearGradient id="blue" x1="0" y1="0" x2="1" y2="1">
      <stop offset="0%" stop-color="#002FA7"/>
      <stop offset="100%" stop-color="#002FA7"/>
    </linearGradient>
    <style>
      .page { font-family: "Inter", "Helvetica Neue", "Helvetica", "Noto Sans SC", "Microsoft YaHei", "Microsoft YaHei UI", "DengXian", "SimSun", "NSimSun", Arial, sans-serif; }
      .card { fill: rgba(255,255,255,0.78); stroke: #D4D4D2; stroke-width: 1.15; }
      .card2 { fill: rgba(255,255,255,0.88); stroke: #0A0A0A; stroke-width: 1.15; }
      .chartcard { fill: #FFFFFF; stroke: #0A0A0A; stroke-width: 1.15; }
      .kicker { fill: #002FA7; font-size: 14.5px; font-weight: 700; letter-spacing: 1.9px; }
      .title { fill: #0A0A0A; font-size: 39px; font-weight: 560; letter-spacing: 0; }
      .h1 { fill: #0A0A0A; font-size: 52px; font-weight: 360; letter-spacing: 0; }
      .h2 { fill: #0A0A0A; font-size: 24px; font-weight: 560; letter-spacing: 0; }
      .h3 { fill: #0A0A0A; font-size: 19.5px; font-weight: 620; letter-spacing: 0; }
      .body { fill: #242424; font-size: 16.8px; font-weight: 470; letter-spacing: 0; }
      .body2 { fill: #0A0A0A; font-size: 19.2px; font-weight: 560; letter-spacing: 0; }
      .small { fill: #737373; font-size: 13.5px; font-weight: 520; letter-spacing: 0; }
      .metric { fill: #002FA7; font-size: 44px; font-weight: 520; letter-spacing: 0; }
      .axis { stroke: #D4D4D2; stroke-width: 1; }
      .node { fill: rgba(255,255,255,0.82); stroke: #D4D4D2; stroke-width: 1.1; }
      .line { fill: none; stroke-width: 3; stroke-linecap: square; stroke-linejoin: miter; }
    </style>
  </defs>
  <rect class="page" width="1280" height="720" fill="#FAFAF8"/>
  <g class="swiss-grid">
  <line x1="80" y1="0" x2="80" y2="720" stroke="#D4D4D2" stroke-width="0.65" opacity="0.35"/>
  <line x1="150" y1="0" x2="150" y2="720" stroke="#D4D4D2" stroke-width="0.65" opacity="0.35"/>
  <line x1="220" y1="0" x2="220" y2="720" stroke="#D4D4D2" stroke-width="0.65" opacity="0.35"/>
  <line x1="290" y1="0" x2="290" y2="720" stroke="#D4D4D2" stroke-width="0.65" opacity="0.35"/>
  <line x1="360" y1="0" x2="360" y2="720" stroke="#D4D4D2" stroke-width="0.65" opacity="0.35"/>
  <line x1="430" y1="0" x2="430" y2="720" stroke="#D4D4D2" stroke-width="0.65" opacity="0.35"/>
  <line x1="500" y1="0" x2="500" y2="720" stroke="#D4D4D2" stroke-width="0.65" opacity="0.35"/>
  <line x1="570" y1="0" x2="570" y2="720" stroke="#D4D4D2" stroke-width="0.65" opacity="0.35"/>
  <line x1="640" y1="0" x2="640" y2="720" stroke="#D4D4D2" stroke-width="0.65" opacity="0.35"/>
  <line x1="710" y1="0" x2="710" y2="720" stroke="#D4D4D2" stroke-width="0.65" opacity="0.35"/>
  <line x1="780" y1="0" x2="780" y2="720" stroke="#D4D4D2" stroke-width="0.65" opacity="0.35"/>
  <line x1="850" y1="0" x2="850" y2="720" stroke="#D4D4D2" stroke-width="0.65" opacity="0.35"/>
  <line x1="920" y1="0" x2="920" y2="720" stroke="#D4D4D2" stroke-width="0.65" opacity="0.35"/>
  <line x1="990" y1="0" x2="990" y2="720" stroke="#D4D4D2" stroke-width="0.65" opacity="0.35"/>
  <line x1="1060" y1="0" x2="1060" y2="720" stroke="#D4D4D2" stroke-width="0.65" opacity="0.35"/>
  <line x1="1130" y1="0" x2="1130" y2="720" stroke="#D4D4D2" stroke-width="0.65" opacity="0.35"/>
  <line x1="1200" y1="0" x2="1200" y2="720" stroke="#D4D4D2" stroke-width="0.65" opacity="0.35"/>
  <line x1="1270" y1="0" x2="1270" y2="720" stroke="#D4D4D2" stroke-width="0.65" opacity="0.35"/>
  <line x1="0" y1="80" x2="1280" y2="80" stroke="#D4D4D2" stroke-width="0.65" opacity="0.22"/>
  <line x1="0" y1="150" x2="1280" y2="150" stroke="#D4D4D2" stroke-width="0.65" opacity="0.22"/>
  <line x1="0" y1="220" x2="1280" y2="220" stroke="#D4D4D2" stroke-width="0.65" opacity="0.22"/>
  <line x1="0" y1="290" x2="1280" y2="290" stroke="#D4D4D2" stroke-width="0.65" opacity="0.22"/>
  <line x1="0" y1="360" x2="1280" y2="360" stroke="#D4D4D2" stroke-width="0.65" opacity="0.22"/>
  <line x1="0" y1="430" x2="1280" y2="430" stroke="#D4D4D2" stroke-width="0.65" opacity="0.22"/>
  <line x1="0" y1="500" x2="1280" y2="500" stroke="#D4D4D2" stroke-width="0.65" opacity="0.22"/>
  <line x1="0" y1="570" x2="1280" y2="570" stroke="#D4D4D2" stroke-width="0.65" opacity="0.22"/>
  <line x1="0" y1="640" x2="1280" y2="640" stroke="#D4D4D2" stroke-width="0.65" opacity="0.22"/>
  <line x1="0" y1="710" x2="1280" y2="710" stroke="#D4D4D2" stroke-width="0.65" opacity="0.22"/>

  </g>
  <g class="page">
    <text x="50" y="52" class="kicker" text-anchor="start">EVOLUTION</text>
    <text x="50" y="96" class="title" text-anchor="start">并发模型一步步降低等待成本</text>
    <text x="50" y="128" class="body" text-anchor="start">从进程到线程，再到事件循环与协程，演进目标是降低等待资源占用，同时保留代码可维护性。</text>

    <rect x="48" y="158" width="1184" height="144" rx="0" class="card2"/><rect x="48" y="158" width="6" height="144" rx="3" fill="#002FA7" opacity="0.95"/>
    <text x="82" y="210" class="h2">协程处在事件驱动高吞吐与顺序代码可读性之间</text>
    <text x="82" y="250" class="body">报告原文口径：先看任务瓶颈，再选抽象；CPU 密集、强隔离、I/O 等待和传统同步迁移对应不同方案。</text>
    <text x="82" y="282" class="small">判断维度：隔离强度、上下文切换、内存占用、状态管理复杂度、生态是否支持非阻塞 I/O。</text>
    <rect x="48" y="326" width="216" height="232" rx="0" class="card"/><rect x="48" y="326" width="6" height="232" rx="3" fill="#737373" opacity="0.95"/>
    <text x="78" y="374" class="h3">进程</text>
    <text x="78" y="414" class="body">隔离强</text>
    <text x="78" y="446" class="small">崩溃影响小</text>
    <text x="78" y="474" class="small">创建和切换成本高</text>
    <text x="78" y="502" class="small">适合强隔离任务</text>
    <text x="78" y="530" class="small">高并发连接成本偏重</text>
    <rect x="284" y="326" width="216" height="232" rx="0" class="card"/><rect x="284" y="326" width="6" height="232" rx="3" fill="#002FA7" opacity="0.95"/>
    <text x="314" y="374" class="h3">线程</text>
    <text x="314" y="414" class="body">代码直观</text>
    <text x="314" y="446" class="small">共享内存方便</text>
    <text x="314" y="474" class="small">等待也占 OS 线程</text>
    <text x="314" y="502" class="small">栈内存与调度开销放大</text>
    <text x="314" y="530" class="small">适合中等并发与阻塞生态</text>
    <rect x="520" y="326" width="216" height="232" rx="0" class="card"/><rect x="520" y="326" width="6" height="232" rx="3" fill="#002FA7" opacity="0.95"/>
    <text x="550" y="374" class="h3">事件循环</text>
    <text x="550" y="414" class="body">少线程高吞吐</text>
    <text x="550" y="446" class="small">依赖非阻塞 I/O</text>
    <text x="550" y="474" class="small">回调链容易分散状态</text>
    <text x="550" y="502" class="small">适合连接数很高场景</text>
    <text x="550" y="530" class="small">可维护性需要额外设计</text>
    <rect x="756" y="326" width="216" height="232" rx="0" class="card2"/><rect x="756" y="326" width="6" height="232" rx="3" fill="#002FA7" opacity="0.95"/>
    <text x="786" y="374" class="h3">协程</text>
    <text x="786" y="414" class="body">顺序代码表达等待</text>
    <text x="786" y="446" class="small">状态由协程帧保存</text>
    <text x="786" y="474" class="small">运行时负责排队恢复</text>
    <text x="786" y="502" class="small">适合 I/O 等待占主导</text>
    <text x="786" y="530" class="small">阻塞调用会破坏调度</text>
    <rect x="992" y="326" width="240" height="232" rx="0" class="card"/><rect x="992" y="326" width="6" height="232" rx="3" fill="#002FA7" opacity="0.95"/>
    <text x="1022" y="374" class="h3">虚拟线程</text>
    <text x="1022" y="414" class="body">接近线程心智</text>
    <text x="1022" y="446" class="small">JVM 调度到平台线程</text>
    <text x="1022" y="474" class="small">迁移同步代码成本低</text>
    <text x="1022" y="502" class="small">需关注 pinning</text>
    <text x="1022" y="530" class="small">下游容量仍需限流</text>

  </g>
  <text x="1232" y="692" text-anchor="end" class="small">04/20</text>
</svg>
