<svg xmlns="http://www.w3.org/2000/svg" viewBox="0 0 1280 720" width="1280" height="720" role="img" aria-label="协程技术调研">
  <defs>
    <linearGradient id="bg" x1="0" y1="0" x2="1" y2="1">
      <stop offset="0%" stop-color="#0B1020"/>
      <stop offset="55%" stop-color="#0A0A0A"/>
      <stop offset="100%" stop-color="#172033"/>
    </linearGradient>
    <style>
      .page { font-family: "Inter", "Helvetica Neue", "Helvetica", "Noto Sans SC", "Microsoft YaHei", "Microsoft YaHei UI", "DengXian", "SimSun", "NSimSun", Arial, sans-serif; }
      .card { fill: rgba(255,255,255,0.78); stroke: #D4D4D2; stroke-width: 1.15; }
      .card2 { fill: rgba(255,255,255,0.88); stroke: #0A0A0A; stroke-width: 1.15; }
      .chartcard { fill: #FFFFFF; stroke: #0A0A0A; stroke-width: 1.15; }
      .kicker { fill: #002FA7; font-size: 14.5px; font-weight: 700; letter-spacing: 1.9px; }
      .title { fill: #0A0A0A; font-size: 39px; font-weight: 560; letter-spacing: 0; }
      .h1 { fill: #0A0A0A; font-size: 52px; font-weight: 360; letter-spacing: 0; }
      .h2 { fill: #0A0A0A; font-size: 24px; font-weight: 560; letter-spacing: 0; }
      .h3 { fill: #0A0A0A; font-size: 19.5px; font-weight: 620; letter-spacing: 0; }
      .body { fill: #242424; font-size: 16.8px; font-weight: 470; letter-spacing: 0; }
      .body2 { fill: #0A0A0A; font-size: 19.2px; font-weight: 560; letter-spacing: 0; }
      .small { fill: #737373; font-size: 13.5px; font-weight: 520; letter-spacing: 0; }
      .metric { fill: #002FA7; font-size: 44px; font-weight: 520; letter-spacing: 0; }
      .axis { stroke: #D4D4D2; stroke-width: 1; }
      .node { fill: rgba(255,255,255,0.82); stroke: #D4D4D2; stroke-width: 1.1; }
      .line { fill: none; stroke-width: 3; stroke-linecap: square; stroke-linejoin: miter; }
    </style>
  </defs>
  <rect class="page" width="1280" height="720" fill="#FAFAF8"/>
  <g class="swiss-grid">
  <line x1="80" y1="0" x2="80" y2="720" stroke="#D4D4D2" stroke-width="0.65" opacity="0.35"/>
  <line x1="150" y1="0" x2="150" y2="720" stroke="#D4D4D2" stroke-width="0.65" opacity="0.35"/>
  <line x1="220" y1="0" x2="220" y2="720" stroke="#D4D4D2" stroke-width="0.65" opacity="0.35"/>
  <line x1="290" y1="0" x2="290" y2="720" stroke="#D4D4D2" stroke-width="0.65" opacity="0.35"/>
  <line x1="360" y1="0" x2="360" y2="720" stroke="#D4D4D2" stroke-width="0.65" opacity="0.35"/>
  <line x1="430" y1="0" x2="430" y2="720" stroke="#D4D4D2" stroke-width="0.65" opacity="0.35"/>
  <line x1="500" y1="0" x2="500" y2="720" stroke="#D4D4D2" stroke-width="0.65" opacity="0.35"/>
  <line x1="570" y1="0" x2="570" y2="720" stroke="#D4D4D2" stroke-width="0.65" opacity="0.35"/>
  <line x1="640" y1="0" x2="640" y2="720" stroke="#D4D4D2" stroke-width="0.65" opacity="0.35"/>
  <line x1="710" y1="0" x2="710" y2="720" stroke="#D4D4D2" stroke-width="0.65" opacity="0.35"/>
  <line x1="780" y1="0" x2="780" y2="720" stroke="#D4D4D2" stroke-width="0.65" opacity="0.35"/>
  <line x1="850" y1="0" x2="850" y2="720" stroke="#D4D4D2" stroke-width="0.65" opacity="0.35"/>
  <line x1="920" y1="0" x2="920" y2="720" stroke="#D4D4D2" stroke-width="0.65" opacity="0.35"/>
  <line x1="990" y1="0" x2="990" y2="720" stroke="#D4D4D2" stroke-width="0.65" opacity="0.35"/>
  <line x1="1060" y1="0" x2="1060" y2="720" stroke="#D4D4D2" stroke-width="0.65" opacity="0.35"/>
  <line x1="1130" y1="0" x2="1130" y2="720" stroke="#D4D4D2" stroke-width="0.65" opacity="0.35"/>
  <line x1="1200" y1="0" x2="1200" y2="720" stroke="#D4D4D2" stroke-width="0.65" opacity="0.35"/>
  <line x1="1270" y1="0" x2="1270" y2="720" stroke="#D4D4D2" stroke-width="0.65" opacity="0.35"/>
  <line x1="0" y1="80" x2="1280" y2="80" stroke="#D4D4D2" stroke-width="0.65" opacity="0.22"/>
  <line x1="0" y1="150" x2="1280" y2="150" stroke="#D4D4D2" stroke-width="0.65" opacity="0.22"/>
  <line x1="0" y1="220" x2="1280" y2="220" stroke="#D4D4D2" stroke-width="0.65" opacity="0.22"/>
  <line x1="0" y1="290" x2="1280" y2="290" stroke="#D4D4D2" stroke-width="0.65" opacity="0.22"/>
  <line x1="0" y1="360" x2="1280" y2="360" stroke="#D4D4D2" stroke-width="0.65" opacity="0.22"/>
  <line x1="0" y1="430" x2="1280" y2="430" stroke="#D4D4D2" stroke-width="0.65" opacity="0.22"/>
  <line x1="0" y1="500" x2="1280" y2="500" stroke="#D4D4D2" stroke-width="0.65" opacity="0.22"/>
  <line x1="0" y1="570" x2="1280" y2="570" stroke="#D4D4D2" stroke-width="0.65" opacity="0.22"/>
  <line x1="0" y1="640" x2="1280" y2="640" stroke="#D4D4D2" stroke-width="0.65" opacity="0.22"/>
  <line x1="0" y1="710" x2="1280" y2="710" stroke="#D4D4D2" stroke-width="0.65" opacity="0.22"/>

  </g>
  <g class="page">
    <text x="640" y="328" text-anchor="middle" fill="#0A0A0A" font-size="58" font-weight="850">协程技术调研</text>
    <path d="M 9.998 13.395 Q 9.998 14.861 9.071 15.697 Q 8.145 16.534 6.551 16.534 Q 5.426 16.534 4.275 15.96 Q 3.127 15.386 2.134 14.321 L 2.134 16.549 Q 3.022 17.471 4.151 17.962 Q 5.284 18.457 6.81 18.457 Q 9.27 18.457 10.77 17.137 Q 12.27 15.821 12.27 13.571 Q 12.27 11.565 11.348 10.099 Q 10.429 8.636 8.205 7.103 Q 5.929 5.531 5.16 4.853 Q 4.395 4.174 4.087 3.551 Q 3.784 2.929 3.784 2.04 L 12.81 2.04 L 12.81 0 L 1.395 0 L 1.395 0.904 Q 1.395 2.471 1.823 3.566 Q 2.25 4.665 3.232 5.7 Q 4.219 6.739 6.304 8.19 Q 8.438 9.69 9.217 10.822 Q 9.998 11.955 9.998 13.395 Z M 24.972 18.154 L 24.972 6.165 L 27.69 6.165 L 27.69 4.268 L 24.972 4.268 L 24.972 0 L 22.748 0 L 22.748 4.268 L 14.273 4.268 L 14.273 6.06 Q 16.534 8.602 18.818 11.918 Q 21.105 15.236 22.594 18.154 L 24.972 18.154 Z M 16.853 6.165 L 22.748 6.165 L 22.748 14.812 Q 21.529 12.622 20.134 10.564 Q 18.739 8.509 16.853 6.165 Z M 34.827 0 L 34.827 15.529 Q 34.291 14.989 33.005 14.321 Q 31.722 13.654 30.635 13.384 L 30.635 15.634 Q 32.075 16.031 33.713 16.905 Q 35.356 17.779 36.233 18.551 L 37.103 18.551 L 37.103 0 L 34.827 0 Z M 52.22 13.395 Q 52.22 14.861 51.294 15.697 Q 50.368 16.534 48.774 16.534 Q 47.649 16.534 46.498 15.96 Q 45.35 15.386 44.356 14.321 L 44.356 16.549 Q 45.245 17.471 46.374 17.962 Q 47.506 18.457 49.033 18.457 Q 51.493 18.457 52.993 17.137 Q 54.493 15.821 54.493 13.571 Q 54.493 11.565 53.57 10.099 Q 52.651 8.636 50.428 7.103 Q 48.151 5.531 47.383 4.853 Q 46.618 4.174 46.31 3.551 Q 46.006 2.929 46.006 2.04 L 55.033 2.04 L 55.033 0 L 43.618 0 L 43.618 0.904 Q 43.618 2.471 44.045 3.566 Q 44.473 4.665 45.455 5.7 Q 46.441 6.739 48.526 8.19 Q 50.66 9.69 51.44 10.822 Q 52.22 11.955 52.22 13.395 Z M 69.129 16.736 Q 66.268 11.741 64.633 7.492 Q 63.002 3.248 62.612 0 L 60.223 0 Q 60.658 3.199 62.274 7.301 Q 63.891 11.404 66.598 16.125 L 57.598 16.125 L 57.598 18.154 L 69.129 18.154 L 69.129 16.736 Z M 80.369 13.395 Q 80.369 14.861 79.442 15.697 Q 78.516 16.534 76.922 16.534 Q 75.797 16.534 74.646 15.96 Q 73.499 15.386 72.505 14.321 L 72.505 16.549 Q 73.394 17.471 74.522 17.962 Q 75.655 18.457 77.181 18.457 Q 79.641 18.457 81.141 17.137 Q 82.641 15.821 82.641 13.571 Q 82.641 11.565 81.719 10.099 Q 80.8 8.636 78.576 7.103 Q 76.3 5.531 75.531 4.853 Q 74.766 4.174 74.459 3.551 Q 74.155 2.929 74.155 2.04 L 83.181 2.04 L 83.181 0 L 71.766 0 L 71.766 0.904 Q 71.766 2.471 72.194 3.566 Q 72.621 4.665 73.604 5.7 Q 74.59 6.739 76.675 8.19 Q 78.809 9.69 79.589 10.822 Q 80.369 11.955 80.369 13.395 Z M 97.278 16.736 Q 94.417 11.741 92.782 7.492 Q 91.15 3.248 90.76 0 L 88.372 0 Q 88.807 3.199 90.423 7.301 Q 92.039 11.404 94.747 16.125 L 85.747 16.125 L 85.747 18.154 L 97.278 18.154 L 97.278 16.736 Z M 119.964 2.906 L 117.984 -3.341 L 116.345 -3.341 L 117.785 2.906 L 119.964 2.906 Z M 156.06 14.355 Q 155.19 10.065 152.73 5.52 Q 155.404 1.886 157.114 -0.574 L 155.498 -1.815 Q 153.552 1.02 151.654 3.716 Q 149.123 -0.221 145.583 -2.989 Q 145.114 -2.333 144.248 -1.417 Q 147.972 1.373 150.48 5.377 Q 147.949 8.918 145.489 12.176 L 146.94 13.23 Q 149.472 9.904 151.512 7.159 Q 153.128 10.159 154.23 14.355 L 144.342 14.355 L 144.342 16.065 L 150.81 16.065 Q 149.989 17.685 149.097 19.136 L 150.717 19.957 Q 151.887 18.082 152.543 16.721 L 151.253 16.065 L 157.699 16.065 L 157.699 14.355 L 156.06 14.355 Z M 164.427 19.489 L 166.279 19.489 L 166.279 0.292 Q 166.279 -2.752 163.489 -2.779 Q 162.248 -2.801 159.739 -2.73 Q 159.597 -1.77 159.387 -0.645 Q 161.284 -0.877 162.623 -0.877 Q 164.427 -0.904 164.427 0.877 L 164.427 19.489 Z M 158.967 17.145 L 160.748 17.145 L 160.748 2.333 L 158.967 2.333 L 158.967 17.145 Z M 170.074 14.261 L 181.467 14.261 L 181.467 9.06 L 179.918 9.06 L 179.918 9.574 L 171.668 9.574 L 171.668 7.98 Q 171.668 1.301 169.23 -2.966 Q 168.623 -2.216 167.989 -1.699 Q 170.097 1.56 170.074 8.873 L 170.074 14.261 Z M 182.19 11.051 L 187.114 11.051 L 187.114 14.752 L 188.753 14.752 L 188.753 11.051 L 191.31 11.051 L 191.31 9.645 L 188.753 9.645 L 188.753 -0.364 Q 188.753 -2.73 186.154 -2.73 L 183.248 -2.73 Q 183.105 -1.77 182.895 -0.926 Q 184.373 -1.042 185.802 -1.065 Q 187.114 -1.065 187.114 0.27 L 187.114 9.645 L 182.19 9.645 L 182.19 11.051 Z M 168.342 17.989 L 175.043 17.989 L 175.043 19.864 L 176.685 19.864 L 176.685 17.989 L 183.06 17.989 L 183.06 19.864 L 184.699 19.864 L 184.699 17.989 L 191.355 17.989 L 191.355 16.582 L 184.699 16.582 L 184.699 15.06 L 183.06 15.06 L 183.06 16.582 L 176.685 16.582 L 176.685 15.06 L 175.043 15.06 L 175.043 16.582 L 168.342 16.582 L 168.342 17.989 Z M 171.904 5.002 L 182.333 5.002 L 182.333 3.69 L 177.81 3.69 L 177.81 -0.502 Q 177.81 -2.801 175.043 -2.801 L 173.378 -2.801 Q 173.239 -1.958 173.029 -1.136 Q 173.989 -1.252 174.833 -1.252 Q 176.262 -1.252 176.262 0.128 L 176.262 3.69 L 171.904 3.69 L 171.904 5.002 Z M 179.918 12.949 L 171.668 12.949 L 171.668 10.886 L 179.918 10.886 L 179.918 12.949 Z M 172.699 7.957 L 181.253 7.957 L 181.253 6.645 L 172.699 6.645 L 172.699 7.957 Z M 184.279 8.239 Q 185.284 6.011 186.248 3.716 L 184.677 3.083 Q 183.762 5.471 182.779 7.676 L 184.279 8.239 Z M 170.873 -0.81 Q 172.324 1.114 173.31 2.966 L 174.623 2.239 Q 173.404 0.06 172.159 -1.699 Q 171.48 -1.159 170.873 -0.81 Z M 179.097 2.333 L 180.409 3.06 Q 181.677 1.23 182.73 -0.502 L 181.373 -1.346 Q 180.222 0.667 179.097 2.333 Z M 193.114 16.324 L 203.003 16.324 L 203.003 17.779 L 194.262 17.779 L 194.262 19.043 L 213.668 19.043 L 213.668 17.779 L 204.69 17.779 L 204.69 16.324 L 214.605 16.324 L 214.605 11.19 L 212.918 11.19 L 212.918 15.06 L 204.69 15.06 L 204.69 9.315 L 203.003 9.315 L 203.003 15.06 L 194.802 15.06 L 194.802 11.19 L 193.114 11.19 L 193.114 16.324 Z M 215.614 0.315 Q 215.097 -0.341 214.489 -1.136 Q 211.44 1.185 209.427 4.511 L 209.427 -3.199 L 207.855 -3.199 L 207.855 4.582 Q 205.748 1.065 202.534 -1.185 Q 201.972 -0.435 201.342 0.199 Q 205.279 2.377 207.503 5.707 L 203.824 5.707 L 203.824 7.207 L 207.855 7.207 L 207.855 9.082 L 209.427 9.082 L 209.427 7.207 L 214.418 7.207 L 214.418 5.707 L 209.73 5.707 Q 212.123 2.284 215.614 0.315 Z M 192.128 0.154 Q 195.177 2.377 197.284 5.707 L 192.949 5.707 L 192.949 7.207 L 197.847 7.207 L 197.847 9.082 L 199.418 9.082 L 199.418 7.207 L 203.029 7.207 L 203.029 5.707 L 199.418 5.707 L 199.418 3.784 L 200.239 4.747 Q 201.717 3.81 203.052 2.73 L 201.972 1.56 Q 200.967 2.426 199.418 3.551 L 199.418 -3.199 L 197.847 -3.199 L 197.847 4.511 Q 196.065 1.301 193.279 -1.23 Q 192.717 -0.48 192.128 0.154 Z M 211.77 13.627 L 211.77 12.409 L 205.909 12.409 L 205.909 13.627 L 211.77 13.627 Z M 211.77 11.002 L 211.77 9.784 L 205.909 9.784 L 205.909 11.002 L 211.77 11.002 Z M 195.927 13.627 L 201.784 13.627 L 201.784 12.409 L 195.927 12.409 L 195.927 13.627 Z M 195.972 11.002 L 201.784 11.002 L 201.784 9.784 L 195.972 9.784 L 195.972 11.002 Z" fill="#242424" transform="translate(531.495 392) scale(1 -1)"/>
  </g>
  <text x="1232" y="692" text-anchor="end" class="small">01/20</text>
</svg>
