<svg xmlns="http://www.w3.org/2000/svg" viewBox="0 0 1280 720" width="1280" height="720" role="img" aria-label="总结：协程是等待任务的调度抽象，CPU计算依赖并行方案">
  <defs>
    <linearGradient id="bg" x1="0" y1="0" x2="1" y2="1">
      <stop offset="0%" stop-color="#0B1020"/>
      <stop offset="55%" stop-color="#111827"/>
      <stop offset="100%" stop-color="#172033"/>
    </linearGradient>
    <linearGradient id="blue" x1="0" y1="0" x2="1" y2="1">
      <stop offset="0%" stop-color="#60A5FA"/>
      <stop offset="100%" stop-color="#2563EB"/>
    </linearGradient>
    <style>
      .page { font-family: "Microsoft YaHei", "Microsoft YaHei UI", "DengXian", "SimSun", "NSimSun", "Segoe UI", Arial, sans-serif; }
      .card { fill: rgba(255,255,255,0.078); stroke: rgba(255,255,255,0.15); stroke-width: 1.1; }
      .card2 { fill: rgba(255,255,255,0.112); stroke: rgba(255,255,255,0.20); stroke-width: 1.1; }
      .chartcard { fill: rgba(248,250,252,0.97); stroke: rgba(255,255,255,0.12); stroke-width: 1.1; }
      .kicker { fill: #93C5FD; font-size: 14.5px; font-weight: 850; letter-spacing: 1.7px; }
      .title { fill: #F8FAFC; font-size: 39px; font-weight: 850; letter-spacing: 0; }
      .h1 { fill: #F8FAFC; font-size: 52px; font-weight: 850; letter-spacing: 0; }
      .h2 { fill: #F8FAFC; font-size: 24px; font-weight: 820; letter-spacing: 0; }
      .h3 { fill: #E5E7EB; font-size: 19.5px; font-weight: 780; letter-spacing: 0; }
      .body { fill: #CBD5E1; font-size: 16.8px; font-weight: 540; letter-spacing: 0; }
      .body2 { fill: #E2E8F0; font-size: 19.2px; font-weight: 620; letter-spacing: 0; }
      .small { fill: #94A3B8; font-size: 13.5px; font-weight: 520; letter-spacing: 0; }
      .metric { fill: #F8FAFC; font-size: 44px; font-weight: 850; letter-spacing: 0; }
      .axis { stroke: rgba(255,255,255,0.22); stroke-width: 1; }
      .node { fill: rgba(15,23,42,0.75); stroke: rgba(255,255,255,0.18); stroke-width: 1.1; }
      .line { fill: none; stroke-width: 4; stroke-linecap: round; stroke-linejoin: round; }
    </style>
  </defs>
  <rect class="page" width="1280" height="720" fill="url(#bg)"/>
  <circle cx="1126" cy="-88" r="282" fill="#2563EB" opacity="0.12"/>
  <circle cx="-86" cy="650" r="310" fill="#059669" opacity="0.10"/>
  <g class="page">
    <text x="50" y="52" class="kicker" text-anchor="start">FINAL TAKEAWAY</text>
    <text x="50" y="96" class="title" text-anchor="start">总结：协程是等待任务的调度抽象，CPU计算依赖并行方案</text>
    <text x="50" y="128" class="body" text-anchor="start">PPT讲结论链路，PDF保留完整调研、实验方法、数据解释、局限性与参考资料。</text>

    <rect x="48" y="158" width="376" height="426" rx="22" class="card2"/><rect x="48" y="158" width="6" height="426" rx="3" fill="#2563EB" opacity="0.95"/>
    <text x="82" y="208" class="kicker">WHAT WE PROVED</text>
    <text x="82" y="250" class="h2">实验结论</text>
    <circle cx="82" cy="295" r="4.5" fill="#60A5FA"/>
<text x="100" y="300" class="body" text-anchor="start">TCP I/O：asyncio 新增线程 0</text>
<circle cx="82" cy="326" r="4.5" fill="#60A5FA"/>
<text x="100" y="331" class="body" text-anchor="start">threads-200：约200线程换低耗时</text>
<circle cx="82" cy="357" r="4.5" fill="#60A5FA"/>
<text x="100" y="362" class="body" text-anchor="start">CPU-bound：耗时接近，需并行方案</text>
<circle cx="82" cy="388" r="4.5" fill="#60A5FA"/>
<text x="100" y="393" class="body" text-anchor="start">主读 median，PDF 保留范围</text>
    <rect x="456" y="158" width="376" height="426" rx="22" class="card"/><rect x="456" y="158" width="6" height="426" rx="3" fill="#059669" opacity="0.95"/>
    <text x="490" y="208" class="kicker">WHAT IT MEANS</text>
    <text x="490" y="250" class="h2">工程判断</text>
    <circle cx="490" cy="295" r="4.5" fill="#34D399"/>
<text x="508" y="300" class="body" text-anchor="start">I/O 等待多：优先考虑协程/异步I/O</text>
<circle cx="490" cy="326" r="4.5" fill="#34D399"/>
<text x="508" y="331" class="body" text-anchor="start">阻塞库多：先处理同步调用和连接池</text>
<circle cx="490" cy="357" r="4.5" fill="#34D399"/>
<text x="508" y="362" class="body" text-anchor="start">CPU 密集：进程池、原生扩展或向量化</text>
<circle cx="490" cy="388" r="4.5" fill="#34D399"/>
<text x="508" y="393" class="body" text-anchor="start">任何模型都不能替代限流、超时和取消</text>
    <rect x="864" y="158" width="368" height="426" rx="22" class="card"/><rect x="864" y="158" width="6" height="426" rx="3" fill="#64748B" opacity="0.95"/>
    <text x="898" y="208" class="kicker">DELIVERABLES</text>
    <text x="898" y="250" class="h2">提交材料</text>
    <circle cx="898" cy="295" r="4.5" fill="#94A3B8"/>
<text x="916" y="300" class="body" text-anchor="start">20页课堂汇报PPT</text>
<circle cx="898" cy="326" r="4.5" fill="#94A3B8"/>
<text x="916" y="331" class="body" text-anchor="start">20页SVG设计源</text>
<circle cx="898" cy="357" r="4.5" fill="#94A3B8"/>
<text x="916" y="362" class="body" text-anchor="start">协程技术调研报告PDF</text>
<circle cx="898" cy="388" r="4.5" fill="#94A3B8"/>
<text x="916" y="393" class="body" text-anchor="start">实验代码、明细CSV、汇总CSV、JSON</text>
<circle cx="898" cy="419" r="4.5" fill="#94A3B8"/>
<text x="916" y="424" class="body" text-anchor="start">AI辅助说明与参考资料</text>
    <text x="898" y="512" class="small">参考：OpenJDK JEP 444 · Python asyncio</text>
    <text x="898" y="538" class="small">Go Effective Go · Microsoft async/await</text>
    <text x="898" y="562" class="small">C++ coroutines · Linux epoll</text>

  </g>
  <text x="1232" y="692" text-anchor="end" class="small">19/20</text>
</svg>
