<svg xmlns="http://www.w3.org/2000/svg" viewBox="0 0 1280 720" width="1280" height="720" role="img" aria-label="高并发服务为什么卡在等待">
  <defs>
    <linearGradient id="bg" x1="0" y1="0" x2="1" y2="1">
      <stop offset="0%" stop-color="#0B1020"/>
      <stop offset="55%" stop-color="#111827"/>
      <stop offset="100%" stop-color="#172033"/>
    </linearGradient>
    <linearGradient id="blue" x1="0" y1="0" x2="1" y2="1">
      <stop offset="0%" stop-color="#60A5FA"/>
      <stop offset="100%" stop-color="#2563EB"/>
    </linearGradient>
    <style>
      .page { font-family: "Microsoft YaHei", "Microsoft YaHei UI", "DengXian", "SimSun", "NSimSun", "Segoe UI", Arial, sans-serif; }
      .card { fill: rgba(255,255,255,0.078); stroke: rgba(255,255,255,0.15); stroke-width: 1.1; }
      .card2 { fill: rgba(255,255,255,0.112); stroke: rgba(255,255,255,0.20); stroke-width: 1.1; }
      .chartcard { fill: rgba(248,250,252,0.97); stroke: rgba(255,255,255,0.12); stroke-width: 1.1; }
      .kicker { fill: #93C5FD; font-size: 14.5px; font-weight: 850; letter-spacing: 1.7px; }
      .title { fill: #F8FAFC; font-size: 39px; font-weight: 850; letter-spacing: 0; }
      .h1 { fill: #F8FAFC; font-size: 52px; font-weight: 850; letter-spacing: 0; }
      .h2 { fill: #F8FAFC; font-size: 24px; font-weight: 820; letter-spacing: 0; }
      .h3 { fill: #E5E7EB; font-size: 19.5px; font-weight: 780; letter-spacing: 0; }
      .body { fill: #CBD5E1; font-size: 16.8px; font-weight: 540; letter-spacing: 0; }
      .body2 { fill: #E2E8F0; font-size: 19.2px; font-weight: 620; letter-spacing: 0; }
      .small { fill: #94A3B8; font-size: 13.5px; font-weight: 520; letter-spacing: 0; }
      .metric { fill: #F8FAFC; font-size: 44px; font-weight: 850; letter-spacing: 0; }
      .axis { stroke: rgba(255,255,255,0.22); stroke-width: 1; }
      .node { fill: rgba(15,23,42,0.75); stroke: rgba(255,255,255,0.18); stroke-width: 1.1; }
      .line { fill: none; stroke-width: 4; stroke-linecap: round; stroke-linejoin: round; }
    </style>
  </defs>
  <rect class="page" width="1280" height="720" fill="url(#bg)"/>
  <circle cx="1126" cy="-88" r="282" fill="#2563EB" opacity="0.12"/>
  <circle cx="-86" cy="650" r="310" fill="#059669" opacity="0.10"/>
  <g class="page">
    <text x="50" y="52" class="kicker" text-anchor="start">PROBLEM</text>
    <text x="50" y="96" class="title" text-anchor="start">高并发服务为什么卡在等待</text>
    <text x="50" y="128" class="body" text-anchor="start">请求常在网络、数据库、RPC、缓存、消息队列、定时器或锁上等待；等待期间线程资源仍被占用。</text>

    <rect x="48" y="158" width="760" height="470" rx="22" class="card2"/><rect x="48" y="158" width="6" height="470" rx="3" fill="#2563EB" opacity="0.95"/>
    <text x="82" y="204" class="kicker">REQUEST LIFECYCLE</text>
    <text x="82" y="244" class="h2">高并发请求的主要矛盾：短计算片段叠加长外部等待</text>
    <rect x="82" y="276" width="688" height="94" rx="16" fill="rgba(255,255,255,0.08)" stroke="rgba(255,255,255,0.16)"/>
    <text x="108" y="310" class="body">报告原文口径：一个请求的大部分时间花在等待外部事件上。</text>
    <text x="108" y="340" class="small">阻塞等待期间，线程本身没有执行有意义的计算；线程栈、调度上下文和内核对象仍然存在。</text>
    <g transform="translate(88 420)">
      <rect x="0" y="0" width="96" height="44" rx="11" fill="#2563EB"/><text x="48" y="28" text-anchor="middle" fill="#fff" font-size="15" font-weight="850">CPU</text>
      <rect x="116" y="0" width="422" height="44" rx="11" fill="rgba(255,255,255,0.12)" stroke="rgba(255,255,255,0.20)"/><text x="327" y="28" text-anchor="middle" class="small">等待 DB / RPC / 网络 / 限流器</text>
      <rect x="558" y="0" width="96" height="44" rx="11" fill="#2563EB"/><text x="606" y="28" text-anchor="middle" fill="#fff" font-size="15" font-weight="850">CPU</text>
      <text x="0" y="96" class="body">线程模型：等待期间仍占一个 OS 线程，资源开销随并发放大</text>
      <text x="0" y="130" class="body">协程模型：任务挂起进入运行时队列，线程继续处理其他可运行任务</text>
      <text x="0" y="164" class="small">选型判断：先确认瓶颈在等待、连接池、下游容量还是 CPU 计算。</text>
    </g>
    <rect x="832" y="158" width="400" height="220" rx="22" class="card"/><rect x="832" y="158" width="6" height="220" rx="3" fill="#059669" opacity="0.95"/>
    <text x="862" y="204" class="kicker">WAIT SOURCES</text>
    <circle cx="862" cy="239" r="4.5" fill="#60A5FA"/>
<text x="880" y="244" class="body" text-anchor="start">客户端网络包到达</text>
<circle cx="862" cy="269" r="4.5" fill="#60A5FA"/>
<text x="880" y="274" class="body" text-anchor="start">数据库 / Redis / 消息队列</text>
<circle cx="862" cy="299" r="4.5" fill="#60A5FA"/>
<text x="880" y="304" class="body" text-anchor="start">RPC 下游响应</text>
<circle cx="862" cy="329" r="4.5" fill="#60A5FA"/>
<text x="880" y="334" class="body" text-anchor="start">磁盘、对象存储、文件系统</text>
<circle cx="862" cy="359" r="4.5" fill="#60A5FA"/>
<text x="880" y="364" class="body" text-anchor="start">连接池、限流器、定时器、锁</text>
    <rect x="832" y="398" width="400" height="230" rx="22" class="card"/><rect x="832" y="398" width="6" height="230" rx="3" fill="#DC2626" opacity="0.95"/>
    <text x="862" y="444" class="kicker">WHY IT MATTERS</text>
    <text x="862" y="506" class="metric">10K+</text>
    <text x="1000" y="486" class="body">连接同时等待时</text>
    <text x="1000" y="516" class="body">线程栈、内核对象</text>
    <text x="1000" y="546" class="body">和调度上下文会放大成本</text>
    <text x="862" y="590" class="small">C10K 推动了事件驱动、非阻塞 I/O、</text>
    <text x="862" y="614" class="small">异步框架与协程运行时的发展。</text>

  </g>
  <text x="1232" y="692" text-anchor="end" class="small">03/20</text>
</svg>
