<svg xmlns="http://www.w3.org/2000/svg" viewBox="0 0 1280 720" width="1280" height="720" role="img" aria-label="协程是可暂停、可恢复的函数">
  <defs>
    <linearGradient id="bg" x1="0" y1="0" x2="1" y2="1">
      <stop offset="0%" stop-color="#0B1020"/>
      <stop offset="55%" stop-color="#111827"/>
      <stop offset="100%" stop-color="#172033"/>
    </linearGradient>
    <linearGradient id="blue" x1="0" y1="0" x2="1" y2="1">
      <stop offset="0%" stop-color="#60A5FA"/>
      <stop offset="100%" stop-color="#2563EB"/>
    </linearGradient>
    <filter id="shadow" x="-20%" y="-20%" width="140%" height="140%">
      <feDropShadow dx="0" dy="16" stdDeviation="18" flood-color="#020617" flood-opacity="0.34"/>
    </filter>
    <style>
      .page { font-family: "Microsoft YaHei", "Segoe UI", Arial, sans-serif; }
      .card { fill: rgba(255,255,255,0.078); stroke: rgba(255,255,255,0.15); stroke-width: 1.1; }
      .card2 { fill: rgba(255,255,255,0.112); stroke: rgba(255,255,255,0.20); stroke-width: 1.1; }
      .chartcard { fill: rgba(248,250,252,0.97); stroke: rgba(255,255,255,0.12); stroke-width: 1.1; }
      .kicker { fill: #93C5FD; font-size: 12.5px; font-weight: 850; letter-spacing: 1.7px; }
      .title { fill: #F8FAFC; font-size: 35px; font-weight: 850; letter-spacing: 0; }
      .h1 { fill: #F8FAFC; font-size: 52px; font-weight: 850; letter-spacing: 0; }
      .h2 { fill: #F8FAFC; font-size: 22px; font-weight: 820; letter-spacing: 0; }
      .h3 { fill: #E5E7EB; font-size: 18px; font-weight: 780; letter-spacing: 0; }
      .body { fill: #CBD5E1; font-size: 16px; font-weight: 540; letter-spacing: 0; }
      .body2 { fill: #E2E8F0; font-size: 18px; font-weight: 620; letter-spacing: 0; }
      .small { fill: #94A3B8; font-size: 12.5px; font-weight: 520; letter-spacing: 0; }
      .metric { fill: #F8FAFC; font-size: 44px; font-weight: 850; letter-spacing: 0; }
      .axis { stroke: rgba(255,255,255,0.22); stroke-width: 1; }
      .node { fill: rgba(15,23,42,0.75); stroke: rgba(255,255,255,0.18); stroke-width: 1.1; }
      .line { fill: none; stroke-width: 4; stroke-linecap: round; stroke-linejoin: round; }
    </style>
  </defs>
  <rect class="page" width="1280" height="720" fill="url(#bg)"/>
  <circle cx="1126" cy="-88" r="282" fill="#2563EB" opacity="0.12"/>
  <circle cx="-86" cy="650" r="310" fill="#059669" opacity="0.10"/>
  <g class="page" filter="url(#shadow)">
    <text x="50" y="52" class="kicker" text-anchor="start">DEFINITION</text>
    <text x="50" y="96" class="title" text-anchor="start">协程是可暂停、可恢复的函数</text>
    <text x="50" y="128" class="body" text-anchor="start">核心不是并行，而是执行过程可以在挂起点被切开。</text>

    <rect x="48" y="166" width="730" height="392" rx="22" class="card2"/><rect x="48" y="166" width="6" height="392" rx="3" fill="#2563EB" opacity="0.95"/>
    <text x="82" y="210" class="kicker">EXECUTION TRACK</text><text x="82" y="250" class="h2">普通函数连续执行；协程在 await 点保存现场</text>
    <g transform="translate(92 330)">
      <text x="0" y="0" class="body">普通函数</text><path d="M128 -6 L604 -6" stroke="#94A3B8" stroke-width="8" stroke-linecap="round"/>
      <text x="0" y="94" class="body">协程函数</text><path d="M128 88 L264 88" stroke="#60A5FA" stroke-width="8" stroke-linecap="round"/><path d="M350 88 L500 88" stroke="#60A5FA" stroke-width="8" stroke-linecap="round"/><path d="M566 88 L604 88" stroke="#60A5FA" stroke-width="8" stroke-linecap="round"/>
      <circle cx="264" cy="88" r="13" fill="#2563EB"/><text x="238" y="130" class="small">await I/O</text><circle cx="500" cy="88" r="13" fill="#2563EB"/><text x="478" y="130" class="small">恢复</text>
    </g>
    <rect x="804" y="166" width="428" height="178" rx="22" class="card"/><rect x="804" y="166" width="6" height="178" rx="3" fill="#059669" opacity="0.95"/>
    <text x="834" y="208" class="kicker">STATE SAVED</text>
    <circle cx="834" cy="243" r="4.5" fill="#60A5FA"/>
<text x="852" y="248" class="body" text-anchor="start">局部变量</text>
<circle cx="834" cy="271" r="4.5" fill="#60A5FA"/>
<text x="852" y="276" class="body" text-anchor="start">下一步执行位置</text>
<circle cx="834" cy="299" r="4.5" fill="#60A5FA"/>
<text x="852" y="304" class="body" text-anchor="start">返回值与异常</text>
<circle cx="834" cy="327" r="4.5" fill="#60A5FA"/>
<text x="852" y="332" class="body" text-anchor="start">恢复句柄 / continuation</text>
    <rect x="804" y="364" width="428" height="194" rx="22" class="card"/><rect x="804" y="364" width="6" height="194" rx="3" fill="#DC2626" opacity="0.95"/>
    <text x="834" y="406" class="kicker">BOUNDARY</text>
    <text x="834" y="448" class="h2">协程不是自动并行</text>
    <text x="834" y="486" class="body">它让等待更便宜，但不会突破 CPU 核心限制。</text>

  </g>
  <text x="48" y="692" class="small">Coroutine Technology Research · 15-min presentation</text>
  <text x="1232" y="692" text-anchor="end" class="small">05/18</text>
</svg>
